<?xml version="1.0" encoding="UTF-8" standalone="no"?>
<svg
   version="1.0"
   width="639.000000pt"
   height="96.000000pt"
   viewBox="0 0 639.000000 96.000000"
   preserveAspectRatio="xMidYMid meet"
   id="svg322"
   sodipodi:docname="beatmania_IIDX.svg"
   inkscape:version="1.2.1 (9c6d41e410, 2022-07-14)"
   xmlns:inkscape="http://www.inkscape.org/namespaces/inkscape"
   xmlns:sodipodi="http://sodipodi.sourceforge.net/DTD/sodipodi-0.dtd"
   xmlns="http://www.w3.org/2000/svg"
   xmlns:svg="http://www.w3.org/2000/svg">
  <defs
     id="defs326" />
  <sodipodi:namedview
     id="namedview324"
     pagecolor="#ffffff"
     bordercolor="#000000"
     borderopacity="0.25"
     inkscape:showpageshadow="2"
     inkscape:pageopacity="0.0"
     inkscape:pagecheckerboard="0"
     inkscape:deskcolor="#d1d1d1"
     inkscape:document-units="pt"
     showgrid="false"
     inkscape:zoom="0.74823944"
     inkscape:cx="374.21176"
     inkscape:cy="136.98824"
     inkscape:window-width="1920"
     inkscape:window-height="1010"
     inkscape:window-x="-6"
     inkscape:window-y="-6"
     inkscape:window-maximized="1"
     inkscape:current-layer="svg322" />
  <path
     id="path282"
     style="fill:#000000;fill-opacity:1;stroke:none;stroke-width:0.1"
     d="m 362.4,65.6 c -1.4,2 -1.5,3.3 -0.8,6.2 1.1,4.7 4.4,5.6 6.2,1.7 1.6,-3.5 1.5,-5.6 -0.4,-8.3 -2,-2.8 -3,-2.8 -5,0.4 z m -94.7,-1.9 c -0.4,0.7 -0.3,7.7 0.1,11 0.1,0.7 1.1,1.3 2.2,1.3 1.8,0 2,-0.7 2,-6.5 0,-5.8 -0.2,-6.5 -1.9,-6.5 -1.1,0 -2.2,0.3 -2.4,0.7 z m -22.4,0 c -1.8,0.7 -2.6,6.4 -1.4,9.6 1.2,3.2 4.5,3.6 6.1,0.8 1.6,-3 1.2,-7.6 -0.8,-9.4 -2,-1.8 -2,-1.8 -3.9,-1 z M 68.037623,77.501178 c 0.928004,0.750589 4.060015,1.501177 6.960026,1.501177 2.900011,0 6.032023,-0.750588 6.960027,-1.501177 1.160004,-1.050823 -0.928004,-1.501176 -6.960027,-1.501176 -6.032022,0 -8.12003,0.450353 -6.960026,1.501176 z M 107.1,64.9 c -2.6,4.9 0,12.7 3.5,10.5 2.8,-1.6 3.8,-5.9 2.2,-9.1 -1.6,-3.4 -4.3,-4.1 -5.7,-1.4 z m -80.5,0.3 c -1.9,2.7 -2,4.8 -0.4,8.3 2.2,4.8 6.8,2.1 6.8,-4 0,-6 -3.6,-8.4 -6.4,-4.3 z m 40.996996,-4.410123 c -3.80111,1.559133 -1.824533,3.586006 3.344975,3.586006 5.473598,0 7.146086,-2.026873 2.888844,-3.741919 -2.7368,-1.091392 -3.497021,-1.091392 -6.233819,0.155913 z M 548,25.2 c 0,0.2 1,2.8 2.2,5.8 1.8,4.5 2.1,7.6 2.1,17 0,9.4 -0.3,12.5 -2.1,17 -1.2,3 -2.2,5.6 -2.2,5.7 0,0.2 1.1,0.3 2.4,0.3 1.8,0 4.2,-2.5 11.1,-11.7 4.9,-6.4 8.8,-12.2 8.8,-12.8 0,-0.6 -3.7,-5.7 -8.3,-11.3 C 555,26.6 553.3,25 550.9,25 549.3,25 548,25.1 548,25.2 Z M 498,47.9 V 71 h 4.6 c 16.3,0 25.6,-10.1 24.1,-26.2 -0.7,-7.6 -3.4,-12.6 -8.6,-16.1 -3.5,-2.4 -5.6,-3 -12.1,-3.4 l -8,-0.6 z M 421,48 v 21 h 4.3 4.4 l 0.1,-21 0.2,-21 h -4.5 -4.5 z m 40.8,-32.3 -0.3,10.8 -4,0.5 -4,0.5 V 48 68.5 l 4.3,0.3 4.2,0.3 V 80.1 91 H 425 388 V 80 69 h 4 4 V 48.1 27.1 L 392.3,26.8 388.5,26.5 388.2,15.7 387.9,5 h 37.1 37.1 z m 61.1,-9.2 c 7.5,1.8 11.7,4.2 18.4,10.4 l 4.7,4.4 V 13.1 5 h 20 20 v 9.6 c 0,8.7 -0.2,9.6 -2,10.1 -1.1,0.3 -2,0.7 -2,1 0,0.7 6.5,9.2 7,9.2 0.3,0 2.2,-2.2 4.2,-4.9 3.6,-4.7 3.6,-4.9 1.5,-5.2 -2.1,-0.3 -2.2,-0.8 -2.5,-10.1 L 591.9,5 h 20.1 20.1 l -0.3,9.7 -0.3,9.8 -4,0.3 c -3.8,0.3 -4.4,0.9 -11.7,10.6 -4.3,5.6 -7.8,10.6 -7.8,11 0,0.5 3.9,6.2 8.6,12.7 8.4,11.5 8.8,11.8 12.8,12.1 6.84583,-0.05496 4.1,3.068832 4.1,9.8 v 9.5 L 613.3,90.8 593,91 v -9.9 c 0,-9.8 0,-10 2.4,-10.3 2.4,-0.3 2.4,-0.4 -2.1,-7.2 l -4.5,-7 -4.4,7 -4.4,6.9 2.6,0.3 2.5,0.3 -0.3,9.7 -0.3,9.7 -19.7,0.3 -19.8,0.2 -0.1,-5.7 c -0.1,-5.2 -0.2,-6.3 -0.7,-8.4 -0.1,-0.3 -2,1 -4.1,3 C 530.3,89 521,90.9 487.8,91 H 464 V 81 71 h 4 4 V 48 25 h -4 -4 V 15 5 h 26.3 c 19.9,0 27.8,0.4 32.6,1.5 z M 25,38.5 V 48 h 5.5 c 8.4,0 13.1,3.1 17.2,11.4 l 2,3.8 1.2,-2.9 C 57.148823,47.459602 87.318537,41.700977 89,59.5 c 0,2.2 1.8,1.8 2.5,-0.5 0.9,-3 5.3,-7.9 8.6,-9.5 4.2,-2.2 12.7,-1.9 16.8,0.6 l 3.3,2 2.2,-2 c 3,-2.8 7.6,-2.8 7.6,0 0,3.1 1.1,2.2 8.5,-6.9 5.6,-6.8 7.2,-8.2 9.6,-8.2 h 2.9 v 6.5 6.5 h 4.5 4.5 v 7.4 7.5 l -4.2,0.3 c -4.2,0.3 -4.3,0.4 -4.6,4.2 -0.5,5.6 0.5,8.6 2.8,8.6 1,0 2.2,-0.5 2.5,-1 1.6,-2.6 2.5,-0.4 2.5,6 0,6.7 -0.1,7 -3,8.5 -1.6,0.8 -5.1,1.5 -7.7,1.5 -9,0 -12.3,-4.7 -13.2,-18.5 -0.5,-8.1 -0.8,-9 -2.6,-9 -1.9,0 -2,0.8 -2.3,13.7 L 129.9,91 h -3 c -1.9,0 -3.7,-0.8 -4.8,-2.1 l -1.7,-2.1 -3.4,2.1 c -4.7,2.8 -12.9,2.8 -17.9,0.1 -4,-2.3 -7.9,-7.6 -8.8,-12 -0.3,-1.7 -1,-3 -1.5,-3 -0.7,0 -0.8,1.2 -0.3,3.2 1.7,7.2 1.3,8.1 -4,11.1 -4.6,2.5 -5.8,2.7 -13.6,2.5 -7.4,-0.3 -9.1,-0.7 -12.7,-3.1 -2.4,-1.5 -5.1,-4.5 -6.3,-6.9 l -2.1,-4.2 -1.5,3 c -2,3.9 -6.2,8.2 -9.5,10 -4.3,2.2 -13.4,1.8 -17,-0.8 l -3.1,-2.1 -1.8,2.1 C 15.8,90.2 14.1,91 12.1,91 H 9 V 60 29 h 8 8 z m 313.5,-7.8 c 4.1,4 3.8,9.6 -0.7,12.7 -5.3,3.7 -12.8,0 -12.8,-6.4 0,-6.4 9.1,-10.7 13.5,-6.3 z M 184.2,49.1 c 0.3,0.9 0.9,0.9 2.5,0 3.6,-1.9 8.9,-1.3 12,1.3 l 2.8,2.4 3,-2.4 c 2.1,-1.7 4.3,-2.4 7.2,-2.4 8,0 12.3,7.5 12.3,21.4 0,5.4 0.3,6.6 1.6,6.6 1.3,0 1.5,-0.7 1,-3.4 -0.9,-4.6 0.9,-12.3 3.9,-16.8 4.9,-7.4 16.2,-10.1 23.4,-5.7 l 3.3,2 2.2,-2 c 2,-1.9 3.5,-2.1 15.2,-2.1 8.6,0 13.4,0.4 14.2,1.2 0.9,0.9 1.8,0.9 3.7,0 3.7,-1.7 10.1,-1.5 14.1,0.4 5.5,2.6 7.7,7.4 8.2,17.6 l 0.4,8.8 h 5 4.9 l -0.3,-6.3 c -0.3,-5.6 -0.5,-6.2 -2.5,-6.5 -2.2,-0.3 -2.3,-0.8 -2.3,-7.8 v -7.5 l 10.8,0.3 10.7,0.3 0.1,13.5 c 0.1,10.7 0.4,13.6 1.5,13.8 1.1,0.2 1.4,-1.2 1.4,-6.5 0,-5.6 0.5,-7.6 2.8,-11.5 3.8,-6.5 7.8,-9.1 14.8,-9.6 4.6,-0.3 6.5,0 9.8,1.9 l 4.1,2.3 1.6,-2.2 c 1,-1.4 2.6,-2.2 4.5,-2.2 H 385 V 69.5 91 h -2.8 c -1.6,0 -3.7,-0.9 -4.7,-2 -1.8,-2 -1.8,-2 -5,0 -3.9,2.4 -13.2,2.7 -17.4,0.5 -1.6,-0.8 -4,-2.8 -5.5,-4.5 L 347,81.8 v 4.6 4.6 h -23.9 c -20.9,0 -24,-0.2 -24.5,-1.6 -0.3,-0.9 -0.6,-6.6 -0.6,-12.9 0,-9.1 -0.3,-11.5 -1.6,-12.6 -1.3,-1.1 -2,-1.1 -4.2,0.2 -2.3,1.2 -2.7,2.2 -3,6.7 -0.3,4.7 -0.1,5.2 1.7,5.2 1.9,0 2.1,0.6 2.1,7.5 V 91 h -16.3 c -15.3,0 -16.3,-0.1 -17.5,-2.1 l -1.3,-2 -3.3,2 c -2.3,1.5 -5,2.1 -9,2.1 -6.4,0 -8.7,-0.9 -13.3,-5.3 L 229,82.6 V 86.8 91 H 218 207 V 77.9 c 0,-10 -0.3,-13 -1.2,-12.7 -0.9,0.3 -1.4,4.1 -1.6,13.2 l -0.3,12.7 -8.2,-0.3 -8.2,-0.3 -0.1,-12.2 c 0,-6.8 -0.4,-12.6 -0.8,-13 -1.7,-1.7 -2.6,2.9 -2.6,13.9 V 91 H 173.5 163 v -7.5 c 0,-7.4 0,-7.5 2.5,-7.5 2.5,0 2.6,-0.1 2.3,-6.3 -0.3,-5.6 -0.5,-6.2 -2.5,-6.5 -2.2,-0.3 -2.3,-0.8 -2.3,-7.8 V 48 h 10.4 c 6.9,0 10.6,0.4 10.8,1.1 z"
     inkscape:highlight-color="#f8aaaa"
     sodipodi:nodetypes="cccccccsssccscsccscscccccccsccsccsssssscscssccsccccccccccccccccccccccccccccccccccccccccccccccscsscsccccccccsccscccsscccccccccccccccccccccccccscccscccccccccscscccccccscscscscsccscccccsccccsccccccsccccccccsccccccssscccccssccccccccsccccsscccccscccscccccccscssccsscscccsccccccsscccccsscccssccscsc" />
</svg>
