<?xml version="1.0" encoding="UTF-8" standalone="no"?>
<svg
   width="640"
   height="100"
   viewBox="0 0 640 100"
   version="1.1"
   id="svg638"
   sodipodi:docname="clean_logo.svg"
   inkscape:version="1.2.1 (9c6d41e410, 2022-07-14)"
   xmlns:inkscape="http://www.inkscape.org/namespaces/inkscape"
   xmlns:sodipodi="http://sodipodi.sourceforge.net/DTD/sodipodi-0.dtd"
   xmlns="http://www.w3.org/2000/svg"
   xmlns:svg="http://www.w3.org/2000/svg">
  <defs
     id="defs642" />
  <sodipodi:namedview
     id="namedview640"
     pagecolor="#ffffff"
     bordercolor="#000000"
     borderopacity="0.25"
     inkscape:showpageshadow="2"
     inkscape:pageopacity="0.0"
     inkscape:pagecheckerboard="0"
     inkscape:deskcolor="#d1d1d1"
     showgrid="false"
     inkscape:zoom="1.2716874"
     inkscape:cx="297.63605"
     inkscape:cy="69.592577"
     inkscape:window-width="1920"
     inkscape:window-height="1010"
     inkscape:window-x="-6"
     inkscape:window-y="-6"
     inkscape:window-maximized="1"
     inkscape:current-layer="svg638" />
  <path
     d="M 388.204 17.712 L 388.500 24.425 391.587 25.053 C 393.285 25.398, 395.198 26.004, 395.837 26.399 C 396.664 26.910, 397 33.449, 397 49 C 397 64.347, 396.658 71.093, 395.856 71.589 C 395.227 71.978, 393.468 72.261, 391.947 72.218 C 389.891 72.159, 389.054 72.698, 388.681 74.319 C 388.406 75.519, 388.135 79.537, 388.078 83.250 L 387.976 90 422.815 90 L 457.654 90 457.829 81.642 L 458.003 73.285 453.752 72.389 L 449.500 71.492 449.230 49.623 C 449.041 34.333, 449.304 27.339, 450.103 26.376 C 450.731 25.619, 452.765 25, 454.622 25 L 458 25 458 18 L 458 11 422.954 11 L 387.909 11 388.204 17.712 M 464 17 L 464 23 468 23 C 470.530 23, 472.002 23.459, 472.007 24.250 C 472.010 24.938, 472.033 35.850, 472.058 48.500 C 472.083 61.150, 472.080 72.035, 472.051 72.690 C 472.023 73.344, 470.313 74.019, 468.250 74.190 L 464.500 74.500 464.207 81.720 L 463.914 88.940 466.486 89.586 C 467.901 89.941, 479.508 90.010, 492.279 89.740 C 509.331 89.378, 517.028 88.820, 521.250 87.637 C 524.412 86.751, 528.687 84.949, 530.750 83.633 C 532.812 82.316, 536.195 79.529, 538.266 77.437 C 540.337 75.346, 543.182 71.284, 544.588 68.410 C 546.251 65.011, 547.401 60.497, 547.879 55.491 C 548.283 51.259, 548.238 44.646, 547.778 40.797 C 547.318 36.947, 546.268 32.381, 545.444 30.649 C 544.621 28.917, 543.340 26.459, 542.599 25.186 C 541.858 23.914, 539.968 21.533, 538.400 19.895 C 536.831 18.258, 533.472 15.586, 530.936 13.959 L 526.325 11 495.162 11 L 464 11 464 17 M 546.656 11.750 C 546.402 12.162, 546.176 14.836, 546.155 17.691 L 546.115 22.882 549.265 23.191 C 551.927 23.452, 553.853 25.260, 561.707 34.872 C 566.818 41.127, 571 46.783, 571 47.441 C 571 48.099, 566.831 54.232, 561.734 61.069 L 552.469 73.500 548.734 73.810 L 545 74.121 545 81.453 C 545 86.692, 545.386 88.934, 546.352 89.305 C 547.096 89.590, 554.448 89.877, 562.691 89.942 C 570.933 90.008, 578.312 89.817, 579.088 89.518 C 580.124 89.119, 580.500 87.045, 580.500 81.737 L 580.500 74.500 577.671 74.176 C 575.558 73.934, 574.997 73.449, 575.454 72.260 C 575.789 71.385, 578.124 67.365, 580.641 63.326 C 583.158 59.288, 585.668 55.705, 586.219 55.364 C 586.771 55.024, 588.281 56.040, 589.575 57.623 C 590.869 59.205, 591.944 60.855, 591.964 61.289 C 591.984 61.724, 593.575 64.418, 595.500 67.276 C 597.425 70.135, 599 72.817, 599 73.237 C 599 73.656, 597.620 74, 595.933 74 L 592.866 74 593.085 81.250 C 593.206 85.237, 593.799 88.831, 594.402 89.235 C 595.006 89.639, 601.631 89.976, 609.125 89.985 C 616.619 89.993, 624.132 89.724, 625.820 89.386 C 628.369 88.876, 628.942 88.239, 629.195 85.636 C 629.363 83.911, 629.342 80.588, 629.149 78.250 L 628.799 74 625.406 74 C 622.329 74, 621.490 73.282, 616.358 66.250 C 613.247 61.987, 608.969 56.208, 606.851 53.408 C 604.733 50.607, 603 47.988, 603 47.589 C 603 47.189, 607.092 41.493, 612.093 34.931 L 621.187 23 624.593 23 L 628 23 628 17 L 628 11 610 11 L 592 11 592 17 L 592 23 595 23 C 596.776 23, 598 23.524, 598 24.284 C 598 24.990, 595.725 28.590, 592.943 32.284 C 590.162 35.978, 587.565 39, 587.172 39 C 586.779 39, 584.089 35.962, 581.195 32.250 C 578.301 28.538, 575.861 25.050, 575.773 24.500 C 575.685 23.950, 576.938 23.271, 578.557 22.990 C 580.176 22.710, 581.455 21.922, 581.400 21.240 C 581.345 20.558, 581.232 17.975, 581.150 15.500 L 581 11 564.059 11 C 554.741 11, 546.910 11.338, 546.656 11.750 M 494.107 24.800 C 493.396 26.129, 493.005 34.484, 493.014 48.184 C 493.021 59.908, 493.299 70.513, 493.630 71.750 C 494.160 73.727, 494.881 74, 499.567 74 C 502.501 74, 507.146 73.519, 509.889 72.930 C 513.299 72.199, 516.290 70.617, 519.345 67.927 C 522.315 65.313, 524.348 62.426, 525.407 59.319 C 526.283 56.747, 527 52.106, 527 49.003 C 527 45.901, 526.316 41.058, 525.479 38.242 C 524.388 34.567, 522.836 32.160, 519.987 29.721 C 517.802 27.851, 514.217 25.782, 512.020 25.124 C 509.822 24.466, 505.142 23.658, 501.619 23.329 C 495.836 22.789, 495.107 22.932, 494.107 24.800 M 417.171 26.229 C 416.351 27.049, 416 33.658, 416 48.266 C 416 59.742, 416.405 69.889, 416.900 70.816 C 417.614 72.152, 418.936 72.430, 423.306 72.163 C 427.793 71.888, 428.908 71.459, 429.330 69.847 C 429.614 68.758, 429.898 58.741, 429.959 47.586 C 430.044 32.129, 429.765 27.071, 428.785 26.327 C 428.078 25.790, 425.439 25.284, 422.921 25.204 C 420.402 25.124, 417.815 25.585, 417.171 26.229 M 9 60.441 C 9 80.109, 9.341 89.092, 10.104 89.564 C 10.711 89.940, 12.331 89.123, 13.705 87.750 L 16.201 85.253 20.660 87.746 C 24.364 89.816, 26.068 90.159, 30.721 89.773 C 35.673 89.363, 36.742 88.857, 39.949 85.404 C 42.489 82.671, 43.984 79.792, 44.934 75.807 C 46.056 71.103, 46.067 69.280, 44.998 65.307 C 44.286 62.663, 42.586 58.990, 41.220 57.144 C 39.854 55.298, 37.116 53.111, 35.136 52.283 C 32.641 51.241, 29.918 50.969, 26.268 51.398 L 21 52.017 21 42.009 L 21 32 15 32 L 9 32 9 60.441 M 326.413 34.493 C 325.452 35.959, 325.020 37.942, 325.363 39.309 C 325.684 40.587, 327.119 42.261, 328.552 43.028 C 330.800 44.231, 331.524 44.217, 333.829 42.930 C 335.538 41.975, 336.617 40.426, 336.825 38.630 C 337.016 36.980, 336.437 35.036, 335.420 33.912 C 334.468 32.860, 332.420 32, 330.868 32 C 328.964 32, 327.515 32.810, 326.413 34.493 M 141.955 40.750 C 141.136 41.712, 137.928 45.687, 134.824 49.582 C 131.721 53.477, 129.029 57.743, 128.841 59.061 C 128.559 61.047, 129.015 61.549, 131.500 61.986 L 134.500 62.513 135.059 72.716 C 135.499 80.752, 136.025 83.406, 137.535 85.210 C 138.590 86.469, 140.112 88.063, 140.917 88.750 C 141.723 89.438, 144.075 90, 146.144 90 C 148.213 90, 151.052 89.478, 152.453 88.839 C 154.613 87.855, 155 87.019, 155 83.339 L 155 79 151.975 79 C 149.649 79, 148.725 78.408, 147.975 76.435 C 147.439 75.024, 147.007 71.762, 147.015 69.185 C 147.024 66.608, 147.365 63.974, 147.774 63.331 C 148.183 62.689, 150.089 62.014, 152.009 61.831 L 155.500 61.500 155.500 56.500 L 155.500 51.500 152.397 51.400 C 150.691 51.345, 148.778 50.981, 148.147 50.591 C 147.512 50.198, 147 47.455, 147 44.441 C 147 39.893, 146.708 39, 145.222 39 C 144.244 39, 142.774 39.788, 141.955 40.750 M 60.757 52.325 C 59.248 53.023, 56.482 55.079, 54.610 56.894 C 52.631 58.812, 50.688 62.042, 49.969 64.611 C 49.269 67.110, 49 70.980, 49.348 73.522 C 49.687 75.993, 50.757 79.249, 51.727 80.758 C 52.697 82.266, 54.580 84.400, 55.912 85.500 C 57.244 86.600, 59.271 88.047, 60.417 88.715 C 61.563 89.383, 65.542 89.945, 69.261 89.965 C 74.137 89.990, 77.288 89.405, 80.564 87.865 C 84.679 85.931, 85.078 85.436, 84.803 82.615 C 84.562 80.132, 84.094 79.566, 82.500 79.826 C 81.400 80.006, 77.800 80.387, 74.500 80.673 C 69.379 81.117, 68.097 80.876, 65.750 79.024 C 64.237 77.831, 63 76.438, 63 75.927 C 63 75.417, 67.468 75, 72.929 75 C 80.621 75, 83.211 74.646, 84.429 73.429 C 85.419 72.438, 86 70.089, 86 67.076 C 86 63.765, 85.309 61.280, 83.750 58.990 C 82.513 57.172, 80.258 54.764, 78.739 53.639 C 76.791 52.195, 74.142 51.514, 69.739 51.324 C 66.214 51.172, 62.307 51.607, 60.757 52.325 M 100.643 52.028 C 99.071 52.499, 96.886 53.698, 95.786 54.692 C 94.687 55.687, 92.989 58.075, 92.013 60 C 91.038 61.925, 89.924 65.396, 89.538 67.713 C 89.077 70.485, 89.365 73.744, 90.382 77.241 C 91.286 80.350, 93.140 83.718, 94.851 85.357 C 96.459 86.898, 99.458 88.737, 101.517 89.445 C 103.932 90.275, 106.511 90.449, 108.790 89.935 C 110.733 89.496, 113.641 88.163, 115.254 86.971 L 118.185 84.803 120.897 87.402 C 122.389 88.831, 124.147 90, 124.805 90 C 125.690 90, 126 85.083, 126 71.059 C 126 57.717, 125.655 51.905, 124.834 51.398 C 124.151 50.976, 122.707 51.883, 121.346 53.589 C 119.346 56.095, 118.778 56.323, 117.262 55.230 C 116.293 54.531, 114.052 53.294, 112.282 52.480 C 110.512 51.666, 107.812 51.039, 106.282 51.086 C 104.752 51.133, 102.214 51.557, 100.643 52.028 M 163.513 52.832 C 163.231 53.564, 163.007 55.364, 163.015 56.832 C 163.024 58.299, 163.361 59.983, 163.765 60.573 C 164.169 61.163, 165.287 61.936, 166.250 62.292 C 167.718 62.833, 168 64.232, 168 70.969 L 168 79 166.019 79 C 164.767 79, 163.818 79.875, 163.441 81.379 C 163.113 82.688, 162.991 85.050, 163.172 86.629 L 163.500 89.500 171.750 89.790 L 180 90.081 180 79.106 C 180 73.069, 180.439 66.976, 180.975 65.565 C 181.556 64.037, 182.729 63, 183.877 63 C 185.140 63, 186.183 64.086, 186.902 66.149 C 187.506 67.881, 188 73.979, 188 79.699 L 188 90.100 193.750 89.800 L 199.500 89.500 200 78 C 200.275 71.675, 201.038 65.600, 201.697 64.500 C 202.662 62.886, 203.241 62.714, 204.697 63.607 C 206.255 64.564, 206.538 66.434, 206.780 77.357 L 207.060 90 215.511 90 L 223.962 90 224.559 87.621 C 224.887 86.312, 225.009 83.968, 224.828 82.410 C 224.589 80.345, 223.823 79.422, 222 78.998 L 219.500 78.417 218.978 67.959 C 218.650 61.408, 217.923 56.686, 217.032 55.321 C 216.248 54.123, 214.550 52.660, 213.257 52.071 C 211.964 51.482, 209.818 51, 208.488 51 C 207.158 51, 204.478 52.397, 202.534 54.105 L 198.998 57.209 196.098 54.105 C 194.025 51.886, 192.287 51, 190.007 51 C 188.251 51, 185.671 51.900, 184.273 53 C 182.874 54.100, 181.393 55, 180.982 55 C 180.570 55, 179.997 54.095, 179.707 52.988 C 179.231 51.166, 178.471 51.001, 171.604 51.238 C 166.413 51.418, 163.864 51.920, 163.513 52.832 M 237.041 52.306 C 234.875 53.054, 232.452 55.111, 230.558 57.813 C 228.003 61.455, 227.475 63.258, 227.165 69.404 C 226.866 75.321, 227.191 77.454, 228.902 80.807 C 230.059 83.076, 232.684 86.072, 234.735 87.466 C 237.478 89.330, 239.766 90, 243.388 90 C 247.099 90, 249.118 89.384, 251.589 87.500 C 253.392 86.125, 255.182 85, 255.569 85 C 255.955 85, 257.313 86.125, 258.588 87.500 C 259.862 88.875, 261.376 90, 261.952 90 C 262.646 90, 263 83.577, 263 71 C 263 57.018, 262.687 52, 261.814 52 C 261.162 52, 259.567 52.997, 258.270 54.217 C 256.308 56.059, 255.622 56.224, 254.205 55.196 C 253.267 54.516, 251.052 53.294, 249.282 52.480 C 247.512 51.666, 244.812 51.025, 243.282 51.056 C 241.752 51.087, 238.944 51.650, 237.041 52.306 M 269.724 51.823 C 268.369 52.077, 268 53.201, 268 57.073 C 268 61.232, 268.294 62, 269.883 62 C 270.991 62, 272.015 62.927, 272.370 64.250 C 272.701 65.487, 272.979 67.906, 272.986 69.625 C 272.994 71.344, 272.719 74.156, 272.375 75.875 C 271.942 78.042, 271.175 79, 269.875 79 C 268.269 79, 268 79.789, 268 84.500 L 268 90 278.500 90 L 289 90 289 84.570 C 289 79.699, 288.768 79.106, 286.750 78.820 C 284.788 78.541, 284.461 77.824, 284.197 73.226 C 283.926 68.508, 284.208 67.639, 286.870 64.976 C 288.533 63.313, 290.915 62, 292.268 62 C 293.600 62, 295.547 62.947, 296.595 64.105 C 298.193 65.870, 298.557 68.129, 298.855 78.105 L 299.211 90 307.605 90 L 316 90 316 84.500 L 316 79 313.500 79 L 311 79 310.958 71.750 C 310.934 67.485, 310.194 62.464, 309.162 59.556 C 307.974 56.209, 306.453 54.051, 304.453 52.879 C 302.829 51.926, 299.467 51.113, 296.982 51.073 C 293.747 51.021, 291.439 51.697, 288.853 53.454 C 286.867 54.804, 284.962 55.629, 284.621 55.287 C 284.279 54.946, 284 53.922, 284 53.011 C 284 51.639, 282.927 51.368, 277.724 51.428 C 274.272 51.468, 270.672 51.645, 269.724 51.823 M 321.250 51.739 C 320.481 52.002, 320 54.031, 320 57.014 C 320 61.279, 320.270 61.899, 322.250 62.180 L 324.500 62.500 324.790 70.750 L 325.081 79 322.540 79 L 320 79 320 84.500 L 320 90 331 90 L 342 90 342 84.570 C 342 79.699, 341.768 79.106, 339.750 78.820 L 337.500 78.500 337.221 65.250 C 337.020 55.704, 336.601 51.973, 335.721 51.903 C 335.049 51.849, 331.800 51.694, 328.500 51.558 C 325.200 51.423, 321.938 51.504, 321.250 51.739 M 353.389 52.846 C 351.677 53.922, 349.369 56.084, 348.259 57.651 C 347.149 59.218, 345.682 63.010, 345 66.079 C 343.944 70.824, 343.999 72.485, 345.371 77.205 C 346.552 81.267, 348.058 83.723, 350.995 86.376 C 353.694 88.815, 356.068 90.051, 358.253 90.156 C 360.039 90.241, 362.625 90.215, 364 90.097 C 365.375 89.979, 368.135 88.812, 370.134 87.504 L 373.769 85.125 376.059 87.562 C 377.318 88.903, 378.945 90, 379.674 90 C 380.730 90, 381 86.027, 381 70.500 C 381 54.344, 380.757 51, 379.583 51 C 378.804 51, 377.266 52.237, 376.165 53.748 L 374.163 56.497 370.847 54.045 C 368.508 52.316, 365.907 51.490, 362.016 51.242 C 357.827 50.974, 355.751 51.360, 353.389 52.846 M 64.401 62.508 C 63.021 63.888, 62.168 65.463, 62.505 66.008 C 62.842 66.554, 65.806 67, 69.090 67 C 73.726 67, 75.205 66.630, 75.698 65.344 C 76.105 64.285, 75.513 63.024, 74.056 61.844 C 72.803 60.830, 70.683 60, 69.344 60 C 68.005 60, 65.780 61.129, 64.401 62.508 M 23.073 64.635 C 21.933 66.084, 21 68.581, 21 70.185 C 21 71.788, 21.687 74.427, 22.526 76.050 C 23.692 78.306, 24.746 79, 27.003 79 C 28.969 79, 30.435 78.249, 31.395 76.750 C 32.188 75.513, 32.925 73.600, 33.034 72.500 C 33.142 71.400, 33.178 69.487, 33.115 68.250 C 33.052 67.013, 32.100 65.100, 31 64 C 29.900 62.900, 28.133 62, 27.073 62 C 26.012 62, 24.212 63.186, 23.073 64.635 M 103.557 64.223 C 102.701 65.445, 102 68.270, 102 70.500 C 102 72.730, 102.701 75.555, 103.557 76.777 C 104.413 78, 106.100 78.993, 107.307 78.985 C 108.513 78.976, 109.995 78.639, 110.600 78.235 C 111.205 77.831, 112.218 76.517, 112.850 75.316 C 113.483 74.114, 114 71.813, 114 70.201 C 114 68.589, 113.067 66.084, 111.927 64.635 C 110.730 63.112, 108.854 62, 107.484 62 C 106.168 62, 104.421 62.989, 103.557 64.223 M 241.174 64.314 C 239.697 65.887, 239 67.899, 239 70.592 C 239 72.772, 239.701 75.555, 240.557 76.777 C 241.443 78.043, 243.165 79, 244.557 79 C 245.901 79, 247.900 78.100, 249 77 C 250.252 75.748, 251 73.667, 251 71.434 C 251 69.473, 250.483 66.886, 249.850 65.684 C 249.218 64.483, 248.205 63.169, 247.600 62.765 C 246.995 62.361, 245.791 62.024, 244.924 62.015 C 244.058 62.007, 242.370 63.042, 241.174 64.314 M 359.073 64.635 C 357.933 66.084, 357 68.530, 357 70.070 C 357 71.610, 357.424 73.986, 357.943 75.349 C 358.461 76.713, 359.811 78.123, 360.943 78.482 C 362.074 78.841, 363.852 78.864, 364.892 78.534 C 365.933 78.204, 367.335 76.606, 368.007 74.983 C 368.715 73.275, 368.953 70.565, 368.574 68.545 C 368.215 66.627, 366.938 64.370, 365.738 63.529 C 364.537 62.688, 363.013 62, 362.350 62 C 361.687 62, 360.212 63.186, 359.073 64.635"
     stroke="none"
     fill="#fcfcfc"
     fill-rule="evenodd"
     id="path636"
     style="fill:#000000;fill-opacity:1" />
</svg>
