  0
SECTION
  2
HEADER
  9
$ACADVER
  1
AC1014
  9
$HANDSEED
  5
FFFF
  9
$MEASUREMENT
 70
     1
  0
ENDSEC
  0
SECTION
  2
TABLES
  0
TABLE
  2
VPORT
  5
8
330
0
100
AcDbSymbolTable
 70
     4
  0
VPORT
  5
2E
330
8
100
AcDbSymbolTableRecord
100
AcDbViewportTableRecord
  2
*ACTIVE
 70
     0
 10
0.0
 20
0.0
 11
1.0
 21
1.0
 12
210.0
 22
148.5
 13
0.0
 23
0.0
 14
10.0
 24
10.0
 15
10.0
 25
10.0
 16
0.0
 26
0.0
 36
1.0
 17
0.0
 27
0.0
 37
0.0
 40
341.0
 41
1.24
 42
50.0
 43
0.0
 44
0.0
 50
0.0
 51
0.0
 71
     0
 72
   100
 73
     1
 74
     3
 75
     0
 76
     0
 77
     0
 78
     0
  0
ENDTAB
  0
TABLE
  2
LTYPE
  5
5
330
0
100
AcDbSymbolTable
 70
     1
  0
LTYPE
  5
14
330
5
100
AcDbSymbolTableRecord
100
AcDbLinetypeTableRecord
  2
BYBLOCK
 70
     0
  3

 72
    65
 73
     0
 40
0.0
  0
LTYPE
  5
15
330
5
100
AcDbSymbolTableRecord
100
AcDbLinetypeTableRecord
  2
BYLAYER
 70
     0
  3

 72
    65
 73
     0
 40
0.0
  0
LTYPE
  5
16
330
5
100
AcDbSymbolTableRecord
100
AcDbLinetypeTableRecord
  2
CONTINUOUS
 70
     0
  3
Solid line
 72
    65
 73
     0
 40
0.0
  0
ENDTAB
  0
TABLE
  2
LAYER
  5
2
100
AcDbSymbolTable
 70
1
  0
LAYER
  5
50
100
AcDbSymbolTableRecord
100
AcDbLayerTableRecord
  2
0
 70
0
  6
CONTINUOUS
  0
ENDTAB
  0
TABLE
  2
STYLE
  5
3
330
0
100
AcDbSymbolTable
 70
     1
  0
STYLE
  5
11
330
3
100
AcDbSymbolTableRecord
100
AcDbTextStyleTableRecord
  2
STANDARD
 70
     0
 40
0.0
 41
1.0
 50
0.0
 71
     0
 42
2.5
  3
txt
  4

  0
ENDTAB
  0
TABLE
  2
VIEW
  5
6
330
0
100
AcDbSymbolTable
 70
     0
  0
ENDTAB
  0
TABLE
  2
UCS
  5
7
330
0
100
AcDbSymbolTable
 70
     0
  0
ENDTAB
  0
TABLE
  2
APPID
  5
9
330
0
100
AcDbSymbolTable
 70
     2
  0
APPID
  5
12
330
9
100
AcDbSymbolTableRecord
100
AcDbRegAppTableRecord
  2
ACAD
 70
     0
  0
ENDTAB
  0
TABLE
  2
DIMSTYLE
  5
A
330
0
100
AcDbSymbolTable
 70
     1
  0
DIMSTYLE
105
27
330
A
100
AcDbSymbolTableRecord
100
AcDbDimStyleTableRecord
  2
ISO-25
 70
     0
  3

  4

  5

  6

  7

 40
1.0
 41
2.5
 42
0.625
 43
3.75
 44
1.25
 45
0.0
 46
0.0
 47
0.0
 48
0.0
140
2.5
141
2.5
142
0.0
143
0.03937007874016
144
1.0
145
0.0
146
1.0
147
0.625
 71
     0
 72
     0
 73
     0
 74
     0
 75
     0
 76
     0
 77
     1
 78
     8
170
     0
171
     3
172
     1
173
     0
174
     0
175
     0
176
     0
177
     0
178
     0
270
     2
271
     2
272
     2
273
     2
274
     3
340
11
275
     0
280
     0
281
     0
282
     0
283
     0
284
     8
285
     0
286
     0
287
     3
288
     0
  0
ENDTAB
  0
TABLE
  2
BLOCK_RECORD
  5
1
330
0
100
AcDbSymbolTable
 70
     1
  0
BLOCK_RECORD
  5
1F
330
1
100
AcDbSymbolTableRecord
100
AcDbBlockTableRecord
  2
*MODEL_SPACE
  0
BLOCK_RECORD
  5
1B
330
1
100
AcDbSymbolTableRecord
100
AcDbBlockTableRecord
  2
*PAPER_SPACE
  0
ENDTAB
  0
ENDSEC
  0
SECTION
  2
BLOCKS
  0
BLOCK
  5
20
330
1F
100
AcDbEntity
  8
0
100
AcDbBlockBegin
  2
*MODEL_SPACE
 70
     0
 10
0.0
 20
0.0
 30
0.0
  3
*MODEL_SPACE
  1

  0
ENDBLK
  5
21
330
1F
100
AcDbEntity
  8
0
100
AcDbBlockEnd
  0
BLOCK
  5
1C
330
1B
100
AcDbEntity
 67
     1
  8
0
100
AcDbBlockBegin
  2
*PAPER_SPACE
  1

  0
ENDBLK
  5
1D
330
1B
100
AcDbEntity
 67
     1
  8
0
100
AcDbBlockEnd
  0
ENDSEC
  0
SECTION
  2
ENTITIES
  0
SPLINE
  5
100
100
AcDbEntity
  8
0
 62
7
100
AcDbSpline
 70
8
 71
3
 72
8
 73
4
 74
0
 40
0
 40
0
 40
0
 40
0
 40
1
 40
1
 40
1
 40
1
 10
103.607394
 20
19.829727
 30
0.0
 10
104.056656
 20
19.738446
 30
0.0
 10
104.562804
 20
19.578108
 30
0.0
 10
104.731873
 20
19.473598
 30
0.0
  0
SPLINE
  5
101
100
AcDbEntity
  8
0
 62
7
100
AcDbSpline
 70
8
 71
3
 72
8
 73
4
 74
0
 40
0
 40
0
 40
0
 40
0
 40
1
 40
1
 40
1
 40
1
 10
104.731873
 20
19.473598
 30
0.0
 10
104.950683
 20
19.338396
 30
0.0
 10
105.039583
 20
17.608285
 30
0.0
 10
105.039583
 20
13.493750
 30
0.0
  0
SPLINE
  5
102
100
AcDbEntity
  8
0
 62
7
100
AcDbSpline
 70
8
 71
3
 72
8
 73
4
 74
0
 40
0
 40
0
 40
0
 40
0
 40
1
 40
1
 40
1
 40
1
 10
105.039583
 20
13.493750
 30
0.0
 10
105.039583
 20
9.433190
 30
0.0
 10
104.949096
 20
7.648310
 30
0.0
 10
104.736900
 20
7.517077
 30
0.0
  0
SPLINE
  5
103
100
AcDbEntity
  8
0
 62
7
100
AcDbSpline
 70
8
 71
3
 72
8
 73
4
 74
0
 40
0
 40
0
 40
0
 40
0
 40
1
 40
1
 40
1
 40
1
 10
104.736900
 20
7.517077
 30
0.0
 10
104.570477
 20
7.414154
 30
0.0
 10
104.105075
 20
7.339277
 30
0.0
 10
103.702644
 20
7.350654
 30
0.0
  0
SPLINE
  5
104
100
AcDbEntity
  8
0
 62
7
100
AcDbSpline
 70
8
 71
3
 72
8
 73
4
 74
0
 40
0
 40
0
 40
0
 40
0
 40
1
 40
1
 40
1
 40
1
 10
103.702644
 20
7.350654
 30
0.0
 10
103.158660
 20
7.366265
 30
0.0
 10
102.937204
 20
7.223654
 30
0.0
 10
102.838515
 20
6.794765
 30
0.0
  0
SPLINE
  5
105
100
AcDbEntity
  8
0
 62
7
100
AcDbSpline
 70
8
 71
3
 72
8
 73
4
 74
0
 40
0
 40
0
 40
0
 40
0
 40
1
 40
1
 40
1
 40
1
 10
102.838515
 20
6.794765
 30
0.0
 10
102.765754
 20
6.477265
 30
0.0
 10
102.694052
 20
5.414169
 30
0.0
 10
102.678971
 20
4.431771
 30
0.0
  0
LWPOLYLINE
  5
106
100
AcDbEntity
  8
0
 62
7
100
AcDbPolyline
 90
3
 70
0
 10
102.712308
 20
21.772033
 30
0.0
 10
102.790625
 20
19.995885
 30
0.0
 10
103.607394
 20
19.829727
 30
0.0
  0
SPLINE
  5
107
100
AcDbEntity
  8
0
 62
7
100
AcDbSpline
 70
8
 71
3
 72
8
 73
4
 74
0
 40
0
 40
0
 40
0
 40
0
 40
1
 40
1
 40
1
 40
1
 10
118.858771
 20
13.328915
 30
0.0
 10
118.808765
 20
17.374394
 30
0.0
 10
118.878350
 20
19.224890
 30
0.0
 10
119.089752
 20
19.479683
 30
0.0
  0
SPLINE
  5
108
100
AcDbEntity
  8
0
 62
7
100
AcDbSpline
 70
8
 71
3
 72
8
 73
4
 74
0
 40
0
 40
0
 40
0
 40
0
 40
1
 40
1
 40
1
 40
1
 10
119.089752
 20
19.479683
 30
0.0
 10
119.255910
 20
19.679973
 30
0.0
 10
119.794073
 20
19.843750
 30
0.0
 10
120.285404
 20
19.843750
 30
0.0
  0
LWPOLYLINE
  5
109
100
AcDbEntity
  8
0
 62
7
100
AcDbPolyline
 90
9
 70
0
 10
102.678971
 20
4.431771
 30
0.0
 10
102.651983
 20
2.645833
 30
0.0
 10
111.869802
 20
2.645833
 30
0.0
 10
121.087621
 20
2.645833
 30
0.0
 10
121.133923
 20
4.857221
 30
0.0
 10
121.179960
 20
7.068344
 30
0.0
 10
120.055217
 20
7.305410
 30
0.0
 10
118.930208
 20
7.542742
 30
0.0
 10
118.858771
 20
13.328915
 30
0.0
  0
LWPOLYLINE
  5
10a
100
AcDbEntity
  8
0
 62
7
100
AcDbPolyline
 90
7
 70
0
 10
120.285404
 20
19.843750
 30
0.0
 10
121.179167
 20
19.843750
 30
0.0
 10
121.179167
 20
21.695833
 30
0.0
 10
121.179167
 20
23.547917
 30
0.0
 10
111.906579
 20
23.547917
 30
0.0
 10
102.634256
 20
23.547917
 30
0.0
 10
102.712308
 20
21.772033
 30
0.0
  0
SPLINE
  5
10b
100
AcDbEntity
  8
0
 62
7
100
AcDbSpline
 70
8
 71
3
 72
8
 73
4
 74
0
 40
0
 40
0
 40
0
 40
0
 40
1
 40
1
 40
1
 40
1
 10
123.825000
 20
20.372917
 30
0.0
 10
124.494396
 20
20.372917
 30
0.0
 10
124.883863
 20
20.251473
 30
0.0
 10
124.885185
 20
20.042187
 30
0.0
  0
SPLINE
  5
10c
100
AcDbEntity
  8
0
 62
7
100
AcDbSpline
 70
8
 71
3
 72
8
 73
4
 74
0
 40
0
 40
0
 40
0
 40
0
 40
1
 40
1
 40
1
 40
1
 10
124.885185
 20
20.042187
 30
0.0
 10
124.885979
 20
19.860154
 30
0.0
 10
124.892065
 20
16.973021
 30
0.0
 10
124.898679
 20
13.626042
 30
0.0
  0
SPLINE
  5
10d
100
AcDbEntity
  8
0
 62
7
100
AcDbSpline
 70
8
 71
3
 72
8
 73
4
 74
0
 40
0
 40
0
 40
0
 40
0
 40
1
 40
1
 40
1
 40
1
 10
124.898679
 20
13.626042
 30
0.0
 10
124.905294
 20
10.279062
 30
0.0
 10
124.904500
 20
7.399073
 30
0.0
 10
124.896827
 20
7.225771
 30
0.0
  0
SPLINE
  5
10e
100
AcDbEntity
  8
0
 62
7
100
AcDbSpline
 70
8
 71
3
 72
8
 73
4
 74
0
 40
0
 40
0
 40
0
 40
0
 40
1
 40
1
 40
1
 40
1
 10
124.896827
 20
7.225771
 30
0.0
 10
124.889419
 20
7.052733
 30
0.0
 10
124.436981
 20
6.874140
 30
0.0
 10
123.891146
 20
6.828896
 30
0.0
  0
LWPOLYLINE
  5
10f
100
AcDbEntity
  8
0
 62
7
100
AcDbPolyline
 90
3
 70
0
 10
122.766667
 20
21.960417
 30
0.0
 10
122.766667
 20
20.372917
 30
0.0
 10
123.825000
 20
20.372917
 30
0.0
  0
SPLINE
  5
110
100
AcDbEntity
  8
0
 62
7
100
AcDbSpline
 70
8
 71
3
 72
8
 73
4
 74
0
 40
0
 40
0
 40
0
 40
0
 40
1
 40
1
 40
1
 40
1
 10
123.424421
 20
2.755371
 30
0.0
 10
123.798806
 20
2.661444
 30
0.0
 10
126.869825
 20
2.643187
 30
0.0
 10
130.248819
 20
2.714625
 30
0.0
  0
SPLINE
  5
111
100
AcDbEntity
  8
0
 62
7
100
AcDbSpline
 70
8
 71
3
 72
8
 73
4
 74
0
 40
0
 40
0
 40
0
 40
0
 40
1
 40
1
 40
1
 40
1
 10
130.248819
 20
2.714625
 30
0.0
 10
134.760494
 20
2.810404
 30
0.0
 10
136.796992
 20
2.958042
 30
0.0
 10
137.914062
 20
3.271044
 30
0.0
  0
SPLINE
  5
112
100
AcDbEntity
  8
0
 62
7
100
AcDbSpline
 70
8
 71
3
 72
8
 73
4
 74
0
 40
0
 40
0
 40
0
 40
0
 40
1
 40
1
 40
1
 40
1
 10
137.914062
 20
3.271044
 30
0.0
 10
138.750675
 20
3.505465
 30
0.0
 10
139.881769
 20
3.982244
 30
0.0
 10
140.427604
 20
4.330435
 30
0.0
  0
SPLINE
  5
113
100
AcDbEntity
  8
0
 62
7
100
AcDbSpline
 70
8
 71
3
 72
8
 73
4
 74
0
 40
0
 40
0
 40
0
 40
0
 40
1
 40
1
 40
1
 40
1
 10
140.427604
 20
4.330435
 30
0.0
 10
140.973175
 20
4.678892
 30
0.0
 10
141.868260
 20
5.416285
 30
0.0
 10
142.416213
 20
5.969794
 30
0.0
  0
SPLINE
  5
114
100
AcDbEntity
  8
0
 62
7
100
AcDbSpline
 70
8
 71
3
 72
8
 73
4
 74
0
 40
0
 40
0
 40
0
 40
0
 40
1
 40
1
 40
1
 40
1
 10
142.416213
 20
5.969794
 30
0.0
 10
142.964165
 20
6.523037
 30
0.0
 10
143.716904
 20
7.597775
 30
0.0
 10
144.088908
 20
8.358187
 30
0.0
  0
SPLINE
  5
115
100
AcDbEntity
  8
0
 62
7
100
AcDbSpline
 70
8
 71
3
 72
8
 73
4
 74
0
 40
0
 40
0
 40
0
 40
0
 40
1
 40
1
 40
1
 40
1
 10
144.088908
 20
8.358187
 30
0.0
 10
144.528910
 20
9.257506
 30
0.0
 10
144.833181
 20
10.451835
 30
0.0
 10
144.959652
 20
11.776340
 30
0.0
  0
SPLINE
  5
116
100
AcDbEntity
  8
0
 62
7
100
AcDbSpline
 70
8
 71
3
 72
8
 73
4
 74
0
 40
0
 40
0
 40
0
 40
0
 40
1
 40
1
 40
1
 40
1
 10
144.959652
 20
11.776340
 30
0.0
 10
145.066544
 20
12.896056
 30
0.0
 10
145.054638
 20
14.645746
 30
0.0
 10
144.932929
 20
15.664127
 30
0.0
  0
SPLINE
  5
117
100
AcDbEntity
  8
0
 62
7
100
AcDbSpline
 70
8
 71
3
 72
8
 73
4
 74
0
 40
0
 40
0
 40
0
 40
0
 40
1
 40
1
 40
1
 40
1
 10
144.932929
 20
15.664127
 30
0.0
 10
144.811221
 20
16.682773
 30
0.0
 10
144.533408
 20
17.890860
 30
0.0
 10
144.315392
 20
18.349119
 30
0.0
  0
SPLINE
  5
118
100
AcDbEntity
  8
0
 62
7
100
AcDbSpline
 70
8
 71
3
 72
8
 73
4
 74
0
 40
0
 40
0
 40
0
 40
0
 40
1
 40
1
 40
1
 40
1
 10
144.315392
 20
18.349119
 30
0.0
 10
144.097640
 20
18.807377
 30
0.0
 10
143.758708
 20
19.457723
 30
0.0
 10
143.562652
 20
19.794537
 30
0.0
  0
SPLINE
  5
119
100
AcDbEntity
  8
0
 62
7
100
AcDbSpline
 70
8
 71
3
 72
8
 73
4
 74
0
 40
0
 40
0
 40
0
 40
0
 40
1
 40
1
 40
1
 40
1
 10
143.562652
 20
19.794537
 30
0.0
 10
143.366596
 20
20.131087
 30
0.0
 10
142.866533
 20
20.761060
 30
0.0
 10
142.451667
 20
21.194448
 30
0.0
  0
SPLINE
  5
11a
100
AcDbEntity
  8
0
 62
7
100
AcDbSpline
 70
8
 71
3
 72
8
 73
4
 74
0
 40
0
 40
0
 40
0
 40
0
 40
1
 40
1
 40
1
 40
1
 10
142.451667
 20
21.194448
 30
0.0
 10
142.036535
 20
21.627571
 30
0.0
 10
141.147800
 20
22.334537
 30
0.0
 10
140.476817
 20
22.765015
 30
0.0
  0
LWPOLYLINE
  5
11b
100
AcDbEntity
  8
0
 62
7
100
AcDbPolyline
 90
5
 70
0
 10
123.891146
 20
6.828896
 30
0.0
 10
122.898958
 20
6.746875
 30
0.0
 10
122.821435
 20
4.836583
 30
0.0
 10
122.743912
 20
2.926292
 30
0.0
 10
123.424421
 20
2.755371
 30
0.0
  0
SPLINE
  5
11c
100
AcDbEntity
  8
0
 62
7
100
AcDbSpline
 70
8
 71
3
 72
8
 73
4
 74
0
 40
0
 40
0
 40
0
 40
0
 40
1
 40
1
 40
1
 40
1
 10
144.636067
 20
23.349479
 30
0.0
 10
144.568863
 20
23.240471
 30
0.0
 10
144.509067
 20
22.532975
 30
0.0
 10
144.503510
 20
21.777590
 30
0.0
  0
LWPOLYLINE
  5
11d
100
AcDbEntity
  8
0
 62
7
100
AcDbPolyline
 90
5
 70
0
 10
140.476817
 20
22.765015
 30
0.0
 10
139.256823
 20
23.547917
 30
0.0
 10
131.011612
 20
23.547917
 30
0.0
 10
122.766667
 20
23.547917
 30
0.0
 10
122.766667
 20
21.960417
 30
0.0
  0
SPLINE
  5
11e
100
AcDbEntity
  8
0
 62
7
100
AcDbSpline
 70
8
 71
3
 72
8
 73
4
 74
0
 40
0
 40
0
 40
0
 40
0
 40
1
 40
1
 40
1
 40
1
 10
145.326365
 20
20.322381
 30
0.0
 10
146.030685
 20
20.253325
 30
0.0
 10
146.540273
 20
19.774958
 30
0.0
 10
148.618310
 20
17.231783
 30
0.0
  0
SPLINE
  5
11f
100
AcDbEntity
  8
0
 62
7
100
AcDbSpline
 70
8
 71
3
 72
8
 73
4
 74
0
 40
0
 40
0
 40
0
 40
0
 40
1
 40
1
 40
1
 40
1
 10
148.618310
 20
17.231783
 30
0.0
 10
149.970596
 20
15.576815
 30
0.0
 10
151.077083
 20
14.080331
 30
0.0
 10
151.077083
 20
13.906235
 30
0.0
  0
SPLINE
  5
120
100
AcDbEntity
  8
0
 62
7
100
AcDbSpline
 70
8
 71
3
 72
8
 73
4
 74
0
 40
0
 40
0
 40
0
 40
0
 40
1
 40
1
 40
1
 40
1
 10
151.077083
 20
13.906235
 30
0.0
 10
151.077083
 20
13.732140
 30
0.0
 10
149.974035
 20
12.109450
 30
0.0
 10
148.625454
 20
10.300494
 30
0.0
  0
LWPOLYLINE
  5
121
100
AcDbEntity
  8
0
 62
7
100
AcDbPolyline
 90
3
 70
0
 10
144.503510
 20
21.777590
 30
0.0
 10
144.492927
 20
20.404137
 30
0.0
 10
145.326365
 20
20.322381
 30
0.0
  0
SPLINE
  5
122
100
AcDbEntity
  8
0
 62
7
100
AcDbSpline
 70
8
 71
3
 72
8
 73
4
 74
0
 40
0
 40
0
 40
0
 40
0
 40
1
 40
1
 40
1
 40
1
 10
144.197917
 20
4.907227
 30
0.0
 10
144.197917
 20
3.521075
 30
0.0
 10
144.300046
 20
2.927879
 30
0.0
 10
144.555633
 20
2.829719
 30
0.0
  0
SPLINE
  5
123
100
AcDbEntity
  8
0
 62
7
100
AcDbSpline
 70
8
 71
3
 72
8
 73
4
 74
0
 40
0
 40
0
 40
0
 40
0
 40
1
 40
1
 40
1
 40
1
 10
144.555633
 20
2.829719
 30
0.0
 10
144.752483
 20
2.754312
 30
0.0
 10
146.697700
 20
2.678377
 30
0.0
 10
148.878660
 20
2.661179
 30
0.0
  0
SPLINE
  5
124
100
AcDbEntity
  8
0
 62
7
100
AcDbSpline
 70
8
 71
3
 72
8
 73
4
 74
0
 40
0
 40
0
 40
0
 40
0
 40
1
 40
1
 40
1
 40
1
 10
148.878660
 20
2.661179
 30
0.0
 10
151.059356
 20
2.643717
 30
0.0
 10
153.011717
 20
2.694252
 30
0.0
 10
153.217033
 20
2.773362
 30
0.0
  0
SPLINE
  5
125
100
AcDbEntity
  8
0
 62
7
100
AcDbSpline
 70
8
 71
3
 72
8
 73
4
 74
0
 40
0
 40
0
 40
0
 40
0
 40
1
 40
1
 40
1
 40
1
 10
153.217033
 20
2.773362
 30
0.0
 10
153.491142
 20
2.878931
 30
0.0
 10
153.590625
 20
3.427677
 30
0.0
 10
153.590625
 20
4.832085
 30
0.0
  0
LWPOLYLINE
  5
126
100
AcDbEntity
  8
0
 62
7
100
AcDbPolyline
 90
5
 70
0
 10
148.625454
 20
10.300494
 30
0.0
 10
146.174090
 20
7.011458
 30
0.0
 10
145.185871
 20
6.929437
 30
0.0
 10
144.197917
 20
6.847152
 30
0.0
 10
144.197917
 20
4.907227
 30
0.0
  0
SPLINE
  5
127
100
AcDbEntity
  8
0
 62
7
100
AcDbSpline
 70
8
 71
3
 72
8
 73
4
 74
0
 40
0
 40
0
 40
0
 40
0
 40
1
 40
1
 40
1
 40
1
 10
152.842119
 20
6.832600
 30
0.0
 10
152.283054
 20
6.896629
 30
0.0
 10
152.134623
 20
7.024952
 30
0.0
 10
152.255538
 20
7.339542
 30
0.0
  0
SPLINE
  5
128
100
AcDbEntity
  8
0
 62
7
100
AcDbSpline
 70
8
 71
3
 72
8
 73
4
 74
0
 40
0
 40
0
 40
0
 40
0
 40
1
 40
1
 40
1
 40
1
 10
152.255538
 20
7.339542
 30
0.0
 10
152.344173
 20
7.571052
 30
0.0
 10
152.961975
 20
8.634677
 30
0.0
 10
153.627931
 20
9.703329
 30
0.0
  0
SPLINE
  5
129
100
AcDbEntity
  8
0
 62
7
100
AcDbSpline
 70
8
 71
3
 72
8
 73
4
 74
0
 40
0
 40
0
 40
0
 40
0
 40
1
 40
1
 40
1
 40
1
 10
153.627931
 20
9.703329
 30
0.0
 10
154.293888
 20
10.771717
 30
0.0
 10
154.957992
 20
11.719719
 30
0.0
 10
155.103777
 20
11.809942
 30
0.0
  0
SPLINE
  5
12a
100
AcDbEntity
  8
0
 62
7
100
AcDbSpline
 70
8
 71
3
 72
8
 73
4
 74
0
 40
0
 40
0
 40
0
 40
0
 40
1
 40
1
 40
1
 40
1
 10
155.103777
 20
11.809942
 30
0.0
 10
155.249827
 20
11.899900
 30
0.0
 10
155.649348
 20
11.631083
 30
0.0
 10
155.991719
 20
11.212248
 30
0.0
  0
SPLINE
  5
12b
100
AcDbEntity
  8
0
 62
7
100
AcDbSpline
 70
8
 71
3
 72
8
 73
4
 74
0
 40
0
 40
0
 40
0
 40
0
 40
1
 40
1
 40
1
 40
1
 10
155.991719
 20
11.212248
 30
0.0
 10
156.334090
 20
10.793677
 30
0.0
 10
156.618517
 20
10.357115
 30
0.0
 10
156.623808
 20
10.242285
 30
0.0
  0
SPLINE
  5
12c
100
AcDbEntity
  8
0
 62
7
100
AcDbSpline
 70
8
 71
3
 72
8
 73
4
 74
0
 40
0
 40
0
 40
0
 40
0
 40
1
 40
1
 40
1
 40
1
 10
156.623808
 20
10.242285
 30
0.0
 10
156.629100
 20
10.127192
 30
0.0
 10
157.050052
 20
9.414404
 30
0.0
 10
157.559375
 20
8.658225
 30
0.0
  0
SPLINE
  5
12d
100
AcDbEntity
  8
0
 62
7
100
AcDbSpline
 70
8
 71
3
 72
8
 73
4
 74
0
 40
0
 40
0
 40
0
 40
0
 40
1
 40
1
 40
1
 40
1
 10
157.559375
 20
8.658225
 30
0.0
 10
158.068698
 20
7.901781
 30
0.0
 10
158.485417
 20
7.192169
 30
0.0
 10
158.485417
 20
7.081044
 30
0.0
  0
SPLINE
  5
12e
100
AcDbEntity
  8
0
 62
7
100
AcDbSpline
 70
8
 71
3
 72
8
 73
4
 74
0
 40
0
 40
0
 40
0
 40
0
 40
1
 40
1
 40
1
 40
1
 10
158.485417
 20
7.081044
 30
0.0
 10
158.485417
 20
6.970183
 30
0.0
 10
158.120292
 20
6.879167
 30
0.0
 10
157.673940
 20
6.879167
 30
0.0
  0
LWPOLYLINE
  5
12f
100
AcDbEntity
  8
0
 62
7
100
AcDbPolyline
 90
3
 70
0
 10
153.590625
 20
4.832085
 30
0.0
 10
153.590625
 20
6.746875
 30
0.0
 10
152.842119
 20
6.832600
 30
0.0
  0
SPLINE
  5
130
100
AcDbEntity
  8
0
 62
7
100
AcDbSpline
 70
8
 71
3
 72
8
 73
4
 74
0
 40
0
 40
0
 40
0
 40
0
 40
1
 40
1
 40
1
 40
1
 10
156.920406
 20
4.960938
 30
0.0
 10
156.952421
 20
3.906044
 30
0.0
 10
157.109319
 20
2.955131
 30
0.0
 10
157.268863
 20
2.848240
 30
0.0
  0
SPLINE
  5
131
100
AcDbEntity
  8
0
 62
7
100
AcDbSpline
 70
8
 71
3
 72
8
 73
4
 74
0
 40
0
 40
0
 40
0
 40
0
 40
1
 40
1
 40
1
 40
1
 10
157.268863
 20
2.848240
 30
0.0
 10
157.428671
 20
2.741348
 30
0.0
 10
159.181535
 20
2.652183
 30
0.0
 10
161.164323
 20
2.649802
 30
0.0
  0
SPLINE
  5
132
100
AcDbEntity
  8
0
 62
7
100
AcDbSpline
 70
8
 71
3
 72
8
 73
4
 74
0
 40
0
 40
0
 40
0
 40
0
 40
1
 40
1
 40
1
 40
1
 10
161.164323
 20
2.649802
 30
0.0
 10
163.147110
 20
2.647685
 30
0.0
 10
165.134925
 20
2.718858
 30
0.0
 10
165.581542
 20
2.808287
 30
0.0
  0
SPLINE
  5
133
100
AcDbEntity
  8
0
 62
7
100
AcDbSpline
 70
8
 71
3
 72
8
 73
4
 74
0
 40
0
 40
0
 40
0
 40
0
 40
1
 40
1
 40
1
 40
1
 10
165.581542
 20
2.808287
 30
0.0
 10
166.255965
 20
2.943225
 30
0.0
 10
166.407571
 20
3.111765
 30
0.0
 10
166.474510
 20
3.800475
 30
0.0
  0
SPLINE
  5
134
100
AcDbEntity
  8
0
 62
7
100
AcDbSpline
 70
8
 71
3
 72
8
 73
4
 74
0
 40
0
 40
0
 40
0
 40
0
 40
1
 40
1
 40
1
 40
1
 10
166.474510
 20
3.800475
 30
0.0
 10
166.518960
 20
4.256881
 30
0.0
 10
166.513404
 20
5.136092
 30
0.0
 10
166.462340
 20
5.754687
 30
0.0
  0
LWPOLYLINE
  5
135
100
AcDbEntity
  8
0
 62
7
100
AcDbPolyline
 90
3
 70
0
 10
157.673940
 20
6.879167
 30
0.0
 10
156.862462
 20
6.879167
 30
0.0
 10
156.920406
 20
4.960938
 30
0.0
  0
SPLINE
  5
136
100
AcDbEntity
  8
0
 62
7
100
AcDbSpline
 70
8
 71
3
 72
8
 73
4
 74
0
 40
0
 40
0
 40
0
 40
0
 40
1
 40
1
 40
1
 40
1
 10
165.472004
 20
6.879167
 30
0.0
 10
164.657881
 20
6.879167
 30
0.0
 10
164.435896
 20
7.069138
 30
0.0
 10
163.078054
 20
8.929688
 30
0.0
  0
SPLINE
  5
137
100
AcDbEntity
  8
0
 62
7
100
AcDbSpline
 70
8
 71
3
 72
8
 73
4
 74
0
 40
0
 40
0
 40
0
 40
0
 40
1
 40
1
 40
1
 40
1
 10
163.078054
 20
8.929688
 30
0.0
 10
162.254935
 20
10.057606
 30
0.0
 10
161.123048
 20
11.586633
 30
0.0
 10
160.562660
 20
12.327467
 30
0.0
  0
SPLINE
  5
138
100
AcDbEntity
  8
0
 62
7
100
AcDbSpline
 70
8
 71
3
 72
8
 73
4
 74
0
 40
0
 40
0
 40
0
 40
0
 40
1
 40
1
 40
1
 40
1
 10
160.562660
 20
12.327467
 30
0.0
 10
160.002273
 20
13.068565
 30
0.0
 10
159.543750
 20
13.761508
 30
0.0
 10
159.543750
 20
13.867077
 30
0.0
  0
SPLINE
  5
139
100
AcDbEntity
  8
0
 62
7
100
AcDbSpline
 70
8
 71
3
 72
8
 73
4
 74
0
 40
0
 40
0
 40
0
 40
0
 40
1
 40
1
 40
1
 40
1
 10
159.543750
 20
13.867077
 30
0.0
 10
159.543750
 20
13.972910
 30
0.0
 10
160.626425
 20
15.479977
 30
0.0
 10
161.949606
 20
17.216173
 30
0.0
  0
LWPOLYLINE
  5
13a
100
AcDbEntity
  8
0
 62
7
100
AcDbPolyline
 90
3
 70
0
 10
166.462340
 20
5.754687
 30
0.0
 10
166.369735
 20
6.879167
 30
0.0
 10
165.472004
 20
6.879167
 30
0.0
  0
SPLINE
  5
13b
100
AcDbEntity
  8
0
 62
7
100
AcDbSpline
 70
8
 71
3
 72
8
 73
4
 74
0
 40
0
 40
0
 40
0
 40
0
 40
1
 40
1
 40
1
 40
1
 10
157.427083
 20
20.372917
 30
0.0
 10
157.896983
 20
20.372917
 30
0.0
 10
158.220833
 20
20.234275
 30
0.0
 10
158.220833
 20
20.033192
 30
0.0
  0
SPLINE
  5
13c
100
AcDbEntity
  8
0
 62
7
100
AcDbSpline
 70
8
 71
3
 72
8
 73
4
 74
0
 40
0
 40
0
 40
0
 40
0
 40
1
 40
1
 40
1
 40
1
 10
158.220833
 20
20.033192
 30
0.0
 10
158.220833
 20
19.846396
 30
0.0
 10
157.618906
 20
18.893896
 30
0.0
 10
156.882835
 20
17.916525
 30
0.0
  0
SPLINE
  5
13d
100
AcDbEntity
  8
0
 62
7
100
AcDbSpline
 70
8
 71
3
 72
8
 73
4
 74
0
 40
0
 40
0
 40
0
 40
0
 40
1
 40
1
 40
1
 40
1
 10
156.882835
 20
17.916525
 30
0.0
 10
156.147029
 20
16.939154
 30
0.0
 10
155.459906
 20
16.139583
 30
0.0
 10
155.355925
 20
16.139583
 30
0.0
  0
SPLINE
  5
13e
100
AcDbEntity
  8
0
 62
7
100
AcDbSpline
 70
8
 71
3
 72
8
 73
4
 74
0
 40
0
 40
0
 40
0
 40
0
 40
1
 40
1
 40
1
 40
1
 10
155.355925
 20
16.139583
 30
0.0
 10
155.251944
 20
16.139583
 30
0.0
 10
154.540215
 20
16.943388
 30
0.0
 10
153.774510
 20
17.925521
 30
0.0
  0
SPLINE
  5
13f
100
AcDbEntity
  8
0
 62
7
100
AcDbSpline
 70
8
 71
3
 72
8
 73
4
 74
0
 40
0
 40
0
 40
0
 40
0
 40
1
 40
1
 40
1
 40
1
 10
153.774510
 20
17.925521
 30
0.0
 10
153.008806
 20
18.907654
 30
0.0
 10
152.363223
 20
19.830521
 30
0.0
 10
152.339940
 20
19.976042
 30
0.0
  0
SPLINE
  5
140
100
AcDbEntity
  8
0
 62
7
100
AcDbSpline
 70
8
 71
3
 72
8
 73
4
 74
0
 40
0
 40
0
 40
0
 40
0
 40
1
 40
1
 40
1
 40
1
 10
152.339940
 20
19.976042
 30
0.0
 10
152.316656
 20
20.121562
 30
0.0
 10
152.648179
 20
20.301215
 30
0.0
 10
153.076540
 20
20.375563
 30
0.0
  0
SPLINE
  5
141
100
AcDbEntity
  8
0
 62
7
100
AcDbSpline
 70
8
 71
3
 72
8
 73
4
 74
0
 40
0
 40
0
 40
0
 40
0
 40
1
 40
1
 40
1
 40
1
 10
153.076540
 20
20.375563
 30
0.0
 10
153.504900
 20
20.449646
 30
0.0
 10
153.843302
 20
20.658137
 30
0.0
 10
153.828750
 20
20.838583
 30
0.0
  0
SPLINE
  5
142
100
AcDbEntity
  8
0
 62
7
100
AcDbSpline
 70
8
 71
3
 72
8
 73
4
 74
0
 40
0
 40
0
 40
0
 40
0
 40
1
 40
1
 40
1
 40
1
 10
153.828750
 20
20.838583
 30
0.0
 10
153.814198
 20
21.019029
 30
0.0
 10
153.784300
 20
21.702448
 30
0.0
 10
153.762604
 20
22.357292
 30
0.0
  0
LWPOLYLINE
  5
143
100
AcDbEntity
  8
0
 62
7
100
AcDbPolyline
 90
11
 70
0
 10
161.949606
 20
17.216173
 30
0.0
 10
164.355727
 20
20.372917
 30
0.0
 10
165.256898
 20
20.372917
 30
0.0
 10
166.158333
 20
20.372917
 30
0.0
 10
166.158333
 20
21.960417
 30
0.0
 10
166.158333
 20
23.547917
 30
0.0
 10
161.395833
 20
23.547917
 30
0.0
 10
156.633333
 20
23.547917
 30
0.0
 10
156.633333
 20
21.960417
 30
0.0
 10
156.633333
 20
20.372917
 30
0.0
 10
157.427083
 20
20.372917
 30
0.0
  0
SPLINE
  5
144
100
AcDbEntity
  8
0
 62
7
100
AcDbSpline
 70
8
 71
3
 72
8
 73
4
 74
0
 40
0
 40
0
 40
0
 40
0
 40
1
 40
1
 40
1
 40
1
 10
149.240610
 20
23.547917
 30
0.0
 10
146.775223
 20
23.547917
 30
0.0
 10
144.703271
 20
23.458488
 30
0.0
 10
144.636067
 20
23.349479
 30
0.0
  0
SPLINE
  5
145
100
AcDbEntity
  8
0
 62
7
100
AcDbSpline
 70
8
 71
3
 72
8
 73
4
 74
0
 40
0
 40
0
 40
0
 40
0
 40
1
 40
1
 40
1
 40
1
 10
130.732477
 20
19.896667
 30
0.0
 10
130.544358
 20
19.545035
 30
0.0
 10
130.440906
 20
17.334442
 30
0.0
 10
130.443287
 20
13.709650
 30
0.0
  0
SPLINE
  5
146
100
AcDbEntity
  8
0
 62
7
100
AcDbSpline
 70
8
 71
3
 72
8
 73
4
 74
0
 40
0
 40
0
 40
0
 40
0
 40
1
 40
1
 40
1
 40
1
 10
130.443287
 20
13.709650
 30
0.0
 10
130.445140
 20
10.607675
 30
0.0
 10
130.518694
 20
7.801769
 30
0.0
 10
130.606271
 20
7.474479
 30
0.0
  0
SPLINE
  5
147
100
AcDbEntity
  8
0
 62
7
100
AcDbSpline
 70
8
 71
3
 72
8
 73
4
 74
0
 40
0
 40
0
 40
0
 40
0
 40
1
 40
1
 40
1
 40
1
 10
130.606271
 20
7.474479
 30
0.0
 10
130.746500
 20
6.951398
 30
0.0
 10
130.937265
 20
6.879167
 30
0.0
 10
132.177102
 20
6.879167
 30
0.0
  0
SPLINE
  5
148
100
AcDbEntity
  8
0
 62
7
100
AcDbSpline
 70
8
 71
3
 72
8
 73
4
 74
0
 40
0
 40
0
 40
0
 40
0
 40
1
 40
1
 40
1
 40
1
 10
132.177102
 20
6.879167
 30
0.0
 10
132.953390
 20
6.879167
 30
0.0
 10
134.182379
 20
7.006431
 30
0.0
 10
134.908131
 20
7.162271
 30
0.0
  0
SPLINE
  5
149
100
AcDbEntity
  8
0
 62
7
100
AcDbSpline
 70
8
 71
3
 72
8
 73
4
 74
0
 40
0
 40
0
 40
0
 40
0
 40
1
 40
1
 40
1
 40
1
 10
134.908131
 20
7.162271
 30
0.0
 10
135.810360
 20
7.355681
 30
0.0
 10
136.601729
 20
7.774252
 30
0.0
 10
137.410031
 20
8.485981
 30
0.0
  0
SPLINE
  5
14a
100
AcDbEntity
  8
0
 62
7
100
AcDbSpline
 70
8
 71
3
 72
8
 73
4
 74
0
 40
0
 40
0
 40
0
 40
0
 40
1
 40
1
 40
1
 40
1
 10
137.410031
 20
8.485981
 30
0.0
 10
138.195844
 20
9.177602
 30
0.0
 10
138.733742
 20
9.941454
 30
0.0
 10
139.013935
 20
10.763515
 30
0.0
  0
SPLINE
  5
14b
100
AcDbEntity
  8
0
 62
7
100
AcDbSpline
 70
8
 71
3
 72
8
 73
4
 74
0
 40
0
 40
0
 40
0
 40
0
 40
1
 40
1
 40
1
 40
1
 10
139.013935
 20
10.763515
 30
0.0
 10
139.245710
 20
11.444023
 30
0.0
 10
139.435417
 20
12.671954
 30
0.0
 10
139.435417
 20
13.492956
 30
0.0
  0
SPLINE
  5
14c
100
AcDbEntity
  8
0
 62
7
100
AcDbSpline
 70
8
 71
3
 72
8
 73
4
 74
0
 40
0
 40
0
 40
0
 40
0
 40
1
 40
1
 40
1
 40
1
 10
139.435417
 20
13.492956
 30
0.0
 10
139.435417
 20
14.313694
 30
0.0
 10
139.254442
 20
15.595071
 30
0.0
 10
139.032985
 20
16.340137
 30
0.0
  0
SPLINE
  5
14d
100
AcDbEntity
  8
0
 62
7
100
AcDbSpline
 70
8
 71
3
 72
8
 73
4
 74
0
 40
0
 40
0
 40
0
 40
0
 40
1
 40
1
 40
1
 40
1
 10
139.032985
 20
16.340137
 30
0.0
 10
138.744325
 20
17.312481
 30
0.0
 10
138.333692
 20
17.949333
 30
0.0
 10
137.579894
 20
18.594652
 30
0.0
  0
SPLINE
  5
14e
100
AcDbEntity
  8
0
 62
7
100
AcDbSpline
 70
8
 71
3
 72
8
 73
4
 74
0
 40
0
 40
0
 40
0
 40
0
 40
1
 40
1
 40
1
 40
1
 10
137.579894
 20
18.594652
 30
0.0
 10
137.001779
 20
19.089423
 30
0.0
 10
136.053248
 20
19.636846
 30
0.0
 10
135.471958
 20
19.810942
 30
0.0
  0
SPLINE
  5
14f
100
AcDbEntity
  8
0
 62
7
100
AcDbSpline
 70
8
 71
3
 72
8
 73
4
 74
0
 40
0
 40
0
 40
0
 40
0
 40
1
 40
1
 40
1
 40
1
 10
135.471958
 20
19.810942
 30
0.0
 10
134.890404
 20
19.985037
 30
0.0
 10
133.652154
 20
20.198821
 30
0.0
 10
132.720027
 20
20.285869
 30
0.0
  0
SPLINE
  5
150
100
AcDbEntity
  8
0
 62
7
100
AcDbSpline
 70
8
 71
3
 72
8
 73
4
 74
0
 40
0
 40
0
 40
0
 40
0
 40
1
 40
1
 40
1
 40
1
 10
132.720027
 20
20.285869
 30
0.0
 10
131.189942
 20
20.428744
 30
0.0
 10
130.997060
 20
20.390908
 30
0.0
 10
130.732477
 20
19.896667
 30
0.0
  0
SPLINE
  5
151
100
AcDbEntity
  8
0
 62
7
100
AcDbSpline
 70
8
 71
3
 72
8
 73
4
 74
0
 40
0
 40
0
 40
0
 40
0
 40
1
 40
1
 40
1
 40
1
 10
110.376494
 20
19.518577
 30
0.0
 10
110.159535
 20
19.301619
 30
0.0
 10
110.066667
 20
17.552988
 30
0.0
 10
110.066667
 20
13.687954
 30
0.0
  0
SPLINE
  5
152
100
AcDbEntity
  8
0
 62
7
100
AcDbSpline
 70
8
 71
3
 72
8
 73
4
 74
0
 40
0
 40
0
 40
0
 40
0
 40
1
 40
1
 40
1
 40
1
 10
110.066667
 20
13.687954
 30
0.0
 10
110.066667
 20
10.651596
 30
0.0
 10
110.173823
 20
7.966869
 30
0.0
 10
110.304792
 20
7.721600
 30
0.0
  0
SPLINE
  5
153
100
AcDbEntity
  8
0
 62
7
100
AcDbSpline
 70
8
 71
3
 72
8
 73
4
 74
0
 40
0
 40
0
 40
0
 40
0
 40
1
 40
1
 40
1
 40
1
 10
110.304792
 20
7.721600
 30
0.0
 10
110.493704
 20
7.368117
 30
0.0
 10
110.843483
 20
7.294562
 30
0.0
 10
111.999713
 20
7.365206
 30
0.0
  0
SPLINE
  5
154
100
AcDbEntity
  8
0
 62
7
100
AcDbSpline
 70
8
 71
3
 72
8
 73
4
 74
0
 40
0
 40
0
 40
0
 40
0
 40
1
 40
1
 40
1
 40
1
 10
111.999713
 20
7.365206
 30
0.0
 10
113.186898
 20
7.437967
 30
0.0
 10
113.481908
 20
7.551473
 30
0.0
 10
113.593563
 20
7.977981
 30
0.0
  0
SPLINE
  5
155
100
AcDbEntity
  8
0
 62
7
100
AcDbSpline
 70
8
 71
3
 72
8
 73
4
 74
0
 40
0
 40
0
 40
0
 40
0
 40
1
 40
1
 40
1
 40
1
 10
113.593563
 20
7.977981
 30
0.0
 10
113.668704
 20
8.266112
 30
0.0
 10
113.743846
 20
10.916444
 30
0.0
 10
113.759985
 20
13.867871
 30
0.0
  0
SPLINE
  5
156
100
AcDbEntity
  8
0
 62
7
100
AcDbSpline
 70
8
 71
3
 72
8
 73
4
 74
0
 40
0
 40
0
 40
0
 40
0
 40
1
 40
1
 40
1
 40
1
 10
113.759985
 20
13.867871
 30
0.0
 10
113.782475
 20
17.957535
 30
0.0
 10
113.708656
 20
19.295798
 30
0.0
 10
113.449365
 20
19.492648
 30
0.0
  0
SPLINE
  5
157
100
AcDbEntity
  8
0
 62
7
100
AcDbSpline
 70
8
 71
3
 72
8
 73
4
 74
0
 40
0
 40
0
 40
0
 40
0
 40
1
 40
1
 40
1
 40
1
 10
113.449365
 20
19.492648
 30
0.0
 10
113.262304
 20
19.634729
 30
0.0
 10
112.564069
 20
19.768608
 30
0.0
 10
111.897848
 20
19.789775
 30
0.0
  0
SPLINE
  5
158
100
AcDbEntity
  8
0
 62
7
100
AcDbSpline
 70
8
 71
3
 72
8
 73
4
 74
0
 40
0
 40
0
 40
0
 40
0
 40
1
 40
1
 40
1
 40
1
 10
111.897848
 20
19.789775
 30
0.0
 10
111.231363
 20
19.810942
 30
0.0
 10
110.546885
 20
19.688969
 30
0.0
 10
110.376494
 20
19.518577
 30
0.0
  0
SPLINE
  5
159
100
AcDbEntity
  8
0
 62
7
100
AcDbSpline
 70
8
 71
3
 72
8
 73
4
 74
0
 40
0
 40
0
 40
0
 40
0
 40
1
 40
1
 40
1
 40
1
 10
2.381250
 20
10.466652
 30
0.0
 10
2.381250
 20
5.262827
 30
0.0
 10
2.471473
 20
2.886075
 30
0.0
 10
2.673350
 20
2.761192
 30
0.0
  0
SPLINE
  5
15a
100
AcDbEntity
  8
0
 62
7
100
AcDbSpline
 70
8
 71
3
 72
8
 73
4
 74
0
 40
0
 40
0
 40
0
 40
0
 40
1
 40
1
 40
1
 40
1
 10
2.673350
 20
2.761192
 30
0.0
 10
2.833952
 20
2.661708
 30
0.0
 10
3.262577
 20
2.877873
 30
0.0
 10
3.626115
 20
3.241146
 30
0.0
  0
LWPOLYLINE
  5
15b
100
AcDbEntity
  8
0
 62
7
100
AcDbPolyline
 90
3
 70
0
 10
153.762604
 20
22.357292
 30
0.0
 10
153.722917
 20
23.547917
 30
0.0
 10
149.240610
 20
23.547917
 30
0.0
  0
SPLINE
  5
15c
100
AcDbEntity
  8
0
 62
7
100
AcDbSpline
 70
8
 71
3
 72
8
 73
4
 74
0
 40
0
 40
0
 40
0
 40
0
 40
1
 40
1
 40
1
 40
1
 10
5.466292
 20
3.242204
 30
0.0
 10
6.446308
 20
2.694517
 30
0.0
 10
6.897158
 20
2.603765
 30
0.0
 10
8.128265
 20
2.705894
 30
0.0
  0
SPLINE
  5
15d
100
AcDbEntity
  8
0
 62
7
100
AcDbSpline
 70
8
 71
3
 72
8
 73
4
 74
0
 40
0
 40
0
 40
0
 40
0
 40
1
 40
1
 40
1
 40
1
 10
8.128265
 20
2.705894
 30
0.0
 10
9.438481
 20
2.814373
 30
0.0
 10
9.721321
 20
2.948252
 30
0.0
 10
10.569840
 20
3.861858
 30
0.0
  0
SPLINE
  5
15e
100
AcDbEntity
  8
0
 62
7
100
AcDbSpline
 70
8
 71
3
 72
8
 73
4
 74
0
 40
0
 40
0
 40
0
 40
0
 40
1
 40
1
 40
1
 40
1
 10
10.569840
 20
3.861858
 30
0.0
 10
11.241881
 20
4.584965
 30
0.0
 10
11.637433
 20
5.346700
 30
0.0
 10
11.888787
 20
6.401065
 30
0.0
  0
SPLINE
  5
15f
100
AcDbEntity
  8
0
 62
7
100
AcDbSpline
 70
8
 71
3
 72
8
 73
4
 74
0
 40
0
 40
0
 40
0
 40
0
 40
1
 40
1
 40
1
 40
1
 10
11.888787
 20
6.401065
 30
0.0
 10
12.185650
 20
7.645665
 30
0.0
 10
12.188560
 20
8.128000
 30
0.0
 10
11.905721
 20
9.179190
 30
0.0
  0
SPLINE
  5
160
100
AcDbEntity
  8
0
 62
7
100
AcDbSpline
 70
8
 71
3
 72
8
 73
4
 74
0
 40
0
 40
0
 40
0
 40
0
 40
1
 40
1
 40
1
 40
1
 10
11.905721
 20
9.179190
 30
0.0
 10
11.717338
 20
9.878748
 30
0.0
 10
11.267546
 20
10.850562
 30
0.0
 10
10.906125
 20
11.338983
 30
0.0
  0
SPLINE
  5
161
100
AcDbEntity
  8
0
 62
7
100
AcDbSpline
 70
8
 71
3
 72
8
 73
4
 74
0
 40
0
 40
0
 40
0
 40
0
 40
1
 40
1
 40
1
 40
1
 10
10.906125
 20
11.338983
 30
0.0
 10
10.544704
 20
11.827404
 30
0.0
 10
9.820275
 20
12.406048
 30
0.0
 10
9.296400
 20
12.625123
 30
0.0
  0
SPLINE
  5
162
100
AcDbEntity
  8
0
 62
7
100
AcDbSpline
 70
8
 71
3
 72
8
 73
4
 74
0
 40
0
 40
0
 40
0
 40
0
 40
1
 40
1
 40
1
 40
1
 10
9.296400
 20
12.625123
 30
0.0
 10
8.636265
 20
12.900819
 30
0.0
 10
7.915804
 20
12.972785
 30
0.0
 10
6.950075
 20
12.859279
 30
0.0
  0
LWPOLYLINE
  5
163
100
AcDbEntity
  8
0
 62
7
100
AcDbPolyline
 90
3
 70
0
 10
3.626115
 20
3.241146
 30
0.0
 10
4.286515
 20
3.901810
 30
0.0
 10
5.466292
 20
3.242204
 30
0.0
  0
SPLINE
  5
164
100
AcDbEntity
  8
0
 62
7
100
AcDbSpline
 70
8
 71
3
 72
8
 73
4
 74
0
 40
0
 40
0
 40
0
 40
0
 40
1
 40
1
 40
1
 40
1
 10
86.363440
 20
17.332060
 30
0.0
 10
86.109175
 20
16.944181
 30
0.0
 10
85.994875
 20
16.419512
 30
0.0
 10
86.085627
 20
16.057827
 30
0.0
  0
SPLINE
  5
165
100
AcDbEntity
  8
0
 62
7
100
AcDbSpline
 70
8
 71
3
 72
8
 73
4
 74
0
 40
0
 40
0
 40
0
 40
0
 40
1
 40
1
 40
1
 40
1
 10
86.085627
 20
16.057827
 30
0.0
 10
86.170558
 20
15.719690
 30
0.0
 10
86.550235
 20
15.276777
 30
0.0
 10
86.929383
 20
15.073842
 30
0.0
  0
SPLINE
  5
166
100
AcDbEntity
  8
0
 62
7
100
AcDbSpline
 70
8
 71
3
 72
8
 73
4
 74
0
 40
0
 40
0
 40
0
 40
0
 40
1
 40
1
 40
1
 40
1
 10
86.929383
 20
15.073842
 30
0.0
 10
87.524167
 20
14.755548
 30
0.0
 10
87.715725
 20
14.759252
 30
0.0
 10
88.325590
 20
15.099771
 30
0.0
  0
SPLINE
  5
167
100
AcDbEntity
  8
0
 62
7
100
AcDbSpline
 70
8
 71
3
 72
8
 73
4
 74
0
 40
0
 40
0
 40
0
 40
0
 40
1
 40
1
 40
1
 40
1
 10
88.325590
 20
15.099771
 30
0.0
 10
88.777763
 20
15.352448
 30
0.0
 10
89.063248
 20
15.762287
 30
0.0
 10
89.118281
 20
16.237479
 30
0.0
  0
SPLINE
  5
168
100
AcDbEntity
  8
0
 62
7
100
AcDbSpline
 70
8
 71
3
 72
8
 73
4
 74
0
 40
0
 40
0
 40
0
 40
0
 40
1
 40
1
 40
1
 40
1
 10
89.118281
 20
16.237479
 30
0.0
 10
89.168817
 20
16.674042
 30
0.0
 10
89.015623
 20
17.188392
 30
0.0
 10
88.746542
 20
17.485783
 30
0.0
  0
SPLINE
  5
169
100
AcDbEntity
  8
0
 62
7
100
AcDbSpline
 70
8
 71
3
 72
8
 73
4
 74
0
 40
0
 40
0
 40
0
 40
0
 40
1
 40
1
 40
1
 40
1
 10
88.746542
 20
17.485783
 30
0.0
 10
88.494658
 20
17.764125
 30
0.0
 10
87.952792
 20
17.991667
 30
0.0
 10
87.542158
 20
17.991667
 30
0.0
  0
SPLINE
  5
16a
100
AcDbEntity
  8
0
 62
7
100
AcDbSpline
 70
8
 71
3
 72
8
 73
4
 74
0
 40
0
 40
0
 40
0
 40
0
 40
1
 40
1
 40
1
 40
1
 10
87.542158
 20
17.991667
 30
0.0
 10
87.038392
 20
17.991667
 30
0.0
 10
86.655010
 20
17.777354
 30
0.0
 10
86.363440
 20
17.332060
 30
0.0
  0
SPLINE
  5
16b
100
AcDbEntity
  8
0
 62
7
100
AcDbSpline
 70
8
 71
3
 72
8
 73
4
 74
0
 40
0
 40
0
 40
0
 40
0
 40
1
 40
1
 40
1
 40
1
 10
37.558927
 20
15.676562
 30
0.0
 10
37.342233
 20
15.422033
 30
0.0
 10
36.493450
 20
14.370315
 30
0.0
 10
35.672183
 20
13.339762
 30
0.0
  0
SPLINE
  5
16c
100
AcDbEntity
  8
0
 62
7
100
AcDbSpline
 70
8
 71
3
 72
8
 73
4
 74
0
 40
0
 40
0
 40
0
 40
0
 40
1
 40
1
 40
1
 40
1
 10
35.672183
 20
13.339762
 30
0.0
 10
34.851181
 20
12.309210
 30
0.0
 10
34.138923
 20
11.180498
 30
0.0
 10
34.089181
 20
10.831777
 30
0.0
  0
SPLINE
  5
16d
100
AcDbEntity
  8
0
 62
7
100
AcDbSpline
 70
8
 71
3
 72
8
 73
4
 74
0
 40
0
 40
0
 40
0
 40
0
 40
1
 40
1
 40
1
 40
1
 10
34.089181
 20
10.831777
 30
0.0
 10
34.014569
 20
10.306315
 30
0.0
 10
34.135219
 20
10.173494
 30
0.0
 10
34.792708
 20
10.057871
 30
0.0
  0
LWPOLYLINE
  5
16e
100
AcDbEntity
  8
0
 62
7
100
AcDbPolyline
 90
7
 70
0
 10
6.950075
 20
12.859279
 30
0.0
 10
5.556250
 20
12.695502
 30
0.0
 10
5.556250
 20
15.343452
 30
0.0
 10
5.556250
 20
17.991667
 30
0.0
 10
3.968750
 20
17.991667
 30
0.0
 10
2.381250
 20
17.991667
 30
0.0
 10
2.381250
 20
10.466652
 30
0.0
  0
SPLINE
  5
16f
100
AcDbEntity
  8
0
 62
7
100
AcDbSpline
 70
8
 71
3
 72
8
 73
4
 74
0
 40
0
 40
0
 40
0
 40
0
 40
1
 40
1
 40
1
 40
1
 10
35.734360
 20
7.218892
 30
0.0
 10
35.850777
 20
5.092700
 30
0.0
 10
35.989948
 20
4.390496
 30
0.0
 10
36.389469
 20
3.913187
 30
0.0
  0
SPLINE
  5
170
100
AcDbEntity
  8
0
 62
7
100
AcDbSpline
 70
8
 71
3
 72
8
 73
4
 74
0
 40
0
 40
0
 40
0
 40
0
 40
1
 40
1
 40
1
 40
1
 10
36.389469
 20
3.913187
 30
0.0
 10
36.668604
 20
3.580077
 30
0.0
 10
37.071300
 20
3.158331
 30
0.0
 10
37.284290
 20
2.976562
 30
0.0
  0
SPLINE
  5
171
100
AcDbEntity
  8
0
 62
7
100
AcDbSpline
 70
8
 71
3
 72
8
 73
4
 74
0
 40
0
 40
0
 40
0
 40
0
 40
1
 40
1
 40
1
 40
1
 10
37.284290
 20
2.976562
 30
0.0
 10
37.497544
 20
2.794529
 30
0.0
 10
38.119844
 20
2.645833
 30
0.0
 10
38.667267
 20
2.645833
 30
0.0
  0
SPLINE
  5
172
100
AcDbEntity
  8
0
 62
7
100
AcDbSpline
 70
8
 71
3
 72
8
 73
4
 74
0
 40
0
 40
0
 40
0
 40
0
 40
1
 40
1
 40
1
 40
1
 10
38.667267
 20
2.645833
 30
0.0
 10
39.214690
 20
2.645833
 30
0.0
 10
39.965842
 20
2.783946
 30
0.0
 10
40.336523
 20
2.953015
 30
0.0
  0
SPLINE
  5
173
100
AcDbEntity
  8
0
 62
7
100
AcDbSpline
 70
8
 71
3
 72
8
 73
4
 74
0
 40
0
 40
0
 40
0
 40
0
 40
1
 40
1
 40
1
 40
1
 10
40.336523
 20
2.953015
 30
0.0
 10
40.908023
 20
3.213365
 30
0.0
 10
41.010417
 20
3.434556
 30
0.0
 10
41.010417
 20
4.408223
 30
0.0
  0
LWPOLYLINE
  5
174
100
AcDbEntity
  8
0
 62
7
100
AcDbPolyline
 90
3
 70
0
 10
34.792708
 20
10.057871
 30
0.0
 10
35.586458
 20
9.918435
 30
0.0
 10
35.734360
 20
7.218892
 30
0.0
  0
SPLINE
  5
175
100
AcDbEntity
  8
0
 62
7
100
AcDbSpline
 70
8
 71
3
 72
8
 73
4
 74
0
 40
0
 40
0
 40
0
 40
0
 40
1
 40
1
 40
1
 40
1
 10
40.210052
 20
5.556250
 30
0.0
 10
39.594631
 20
5.556250
 30
0.0
 10
39.350156
 20
5.712883
 30
0.0
 10
39.151719
 20
6.234906
 30
0.0
  0
SPLINE
  5
176
100
AcDbEntity
  8
0
 62
7
100
AcDbSpline
 70
8
 71
3
 72
8
 73
4
 74
0
 40
0
 40
0
 40
0
 40
0
 40
1
 40
1
 40
1
 40
1
 10
39.151719
 20
6.234906
 30
0.0
 10
39.009902
 20
6.608233
 30
0.0
 10
38.895602
 20
7.471304
 30
0.0
 10
38.897719
 20
8.153135
 30
0.0
  0
SPLINE
  5
177
100
AcDbEntity
  8
0
 62
7
100
AcDbSpline
 70
8
 71
3
 72
8
 73
4
 74
0
 40
0
 40
0
 40
0
 40
0
 40
1
 40
1
 40
1
 40
1
 10
38.897719
 20
8.153135
 30
0.0
 10
38.900100
 20
8.834967
 30
0.0
 10
38.990323
 20
9.531879
 30
0.0
 10
39.098537
 20
9.702006
 30
0.0
  0
SPLINE
  5
178
100
AcDbEntity
  8
0
 62
7
100
AcDbSpline
 70
8
 71
3
 72
8
 73
4
 74
0
 40
0
 40
0
 40
0
 40
0
 40
1
 40
1
 40
1
 40
1
 10
39.098537
 20
9.702006
 30
0.0
 10
39.206752
 20
9.871869
 30
0.0
 10
39.711048
 20
10.050462
 30
0.0
 10
40.219048
 20
10.098881
 30
0.0
  0
LWPOLYLINE
  5
179
100
AcDbEntity
  8
0
 62
7
100
AcDbPolyline
 90
3
 70
0
 10
41.010417
 20
4.408223
 30
0.0
 10
41.010417
 20
5.556250
 30
0.0
 10
40.210052
 20
5.556250
 30
0.0
  0
SPLINE
  5
17a
100
AcDbEntity
  8
0
 62
7
100
AcDbSpline
 70
8
 71
3
 72
8
 73
4
 74
0
 40
0
 40
0
 40
0
 40
0
 40
1
 40
1
 40
1
 40
1
 10
40.321706
 20
12.858750
 30
0.0
 10
39.870327
 20
12.873302
 30
0.0
 10
39.364179
 20
12.969610
 30
0.0
 10
39.197227
 20
13.072798
 30
0.0
  0
SPLINE
  5
17b
100
AcDbEntity
  8
0
 62
7
100
AcDbSpline
 70
8
 71
3
 72
8
 73
4
 74
0
 40
0
 40
0
 40
0
 40
0
 40
1
 40
1
 40
1
 40
1
 10
39.197227
 20
13.072798
 30
0.0
 10
39.029217
 20
13.176779
 30
0.0
 10
38.893750
 20
13.902531
 30
0.0
 10
38.893750
 20
14.699985
 30
0.0
  0
SPLINE
  5
17c
100
AcDbEntity
  8
0
 62
7
100
AcDbSpline
 70
8
 71
3
 72
8
 73
4
 74
0
 40
0
 40
0
 40
0
 40
0
 40
1
 40
1
 40
1
 40
1
 10
38.893750
 20
14.699985
 30
0.0
 10
38.893750
 20
15.903310
 30
0.0
 10
38.816492
 20
16.139583
 30
0.0
 10
38.423321
 20
16.139583
 30
0.0
  0
SPLINE
  5
17d
100
AcDbEntity
  8
0
 62
7
100
AcDbSpline
 70
8
 71
3
 72
8
 73
4
 74
0
 40
0
 40
0
 40
0
 40
0
 40
1
 40
1
 40
1
 40
1
 10
38.423321
 20
16.139583
 30
0.0
 10
38.164558
 20
16.139583
 30
0.0
 10
37.775621
 20
15.931092
 30
0.0
 10
37.558927
 20
15.676562
 30
0.0
  0
SPLINE
  5
17e
100
AcDbEntity
  8
0
 62
7
100
AcDbSpline
 70
8
 71
3
 72
8
 73
4
 74
0
 40
0
 40
0
 40
0
 40
0
 40
1
 40
1
 40
1
 40
1
 10
16.075290
 20
12.614010
 30
0.0
 10
15.676033
 20
12.429331
 30
0.0
 10
14.944196
 20
11.885348
 30
0.0
 10
14.448896
 20
11.405129
 30
0.0
  0
SPLINE
  5
17f
100
AcDbEntity
  8
0
 62
7
100
AcDbSpline
 70
8
 71
3
 72
8
 73
4
 74
0
 40
0
 40
0
 40
0
 40
0
 40
1
 40
1
 40
1
 40
1
 10
14.448896
 20
11.405129
 30
0.0
 10
13.925285
 20
10.897658
 30
0.0
 10
13.411200
 20
10.043054
 30
0.0
 10
13.220965
 20
9.363340
 30
0.0
  0
SPLINE
  5
180
100
AcDbEntity
  8
0
 62
7
100
AcDbSpline
 70
8
 71
3
 72
8
 73
4
 74
0
 40
0
 40
0
 40
0
 40
0
 40
1
 40
1
 40
1
 40
1
 10
13.220965
 20
9.363340
 30
0.0
 10
13.035756
 20
8.702146
 30
0.0
 10
12.964583
 20
7.678208
 30
0.0
 10
13.056658
 20
7.005637
 30
0.0
  0
SPLINE
  5
181
100
AcDbEntity
  8
0
 62
7
100
AcDbSpline
 70
8
 71
3
 72
8
 73
4
 74
0
 40
0
 40
0
 40
0
 40
0
 40
1
 40
1
 40
1
 40
1
 10
13.056658
 20
7.005637
 30
0.0
 10
13.146352
 20
6.351852
 30
0.0
 10
13.429456
 20
5.490369
 30
0.0
 10
13.686102
 20
5.091113
 30
0.0
  0
SPLINE
  5
182
100
AcDbEntity
  8
0
 62
7
100
AcDbSpline
 70
8
 71
3
 72
8
 73
4
 74
0
 40
0
 40
0
 40
0
 40
0
 40
1
 40
1
 40
1
 40
1
 10
13.686102
 20
5.091113
 30
0.0
 10
13.942748
 20
4.692121
 30
0.0
 10
14.440958
 20
4.127500
 30
0.0
 10
14.793383
 20
3.836458
 30
0.0
  0
SPLINE
  5
183
100
AcDbEntity
  8
0
 62
7
100
AcDbSpline
 70
8
 71
3
 72
8
 73
4
 74
0
 40
0
 40
0
 40
0
 40
0
 40
1
 40
1
 40
1
 40
1
 10
14.793383
 20
3.836458
 30
0.0
 10
15.145808
 20
3.545417
 30
0.0
 10
15.682119
 20
3.162565
 30
0.0
 10
15.985331
 20
2.985823
 30
0.0
  0
SPLINE
  5
184
100
AcDbEntity
  8
0
 62
7
100
AcDbSpline
 70
8
 71
3
 72
8
 73
4
 74
0
 40
0
 40
0
 40
0
 40
0
 40
1
 40
1
 40
1
 40
1
 10
15.985331
 20
2.985823
 30
0.0
 10
16.288544
 20
2.809081
 30
0.0
 10
17.341321
 20
2.660385
 30
0.0
 10
18.325306
 20
2.655094
 30
0.0
  0
SPLINE
  5
185
100
AcDbEntity
  8
0
 62
7
100
AcDbSpline
 70
8
 71
3
 72
8
 73
4
 74
0
 40
0
 40
0
 40
0
 40
0
 40
1
 40
1
 40
1
 40
1
 10
18.325306
 20
2.655094
 30
0.0
 10
19.615415
 20
2.648479
 30
0.0
 10
20.449117
 20
2.803260
 30
0.0
 10
21.315892
 20
3.210719
 30
0.0
  0
SPLINE
  5
186
100
AcDbEntity
  8
0
 62
7
100
AcDbSpline
 70
8
 71
3
 72
8
 73
4
 74
0
 40
0
 40
0
 40
0
 40
0
 40
1
 40
1
 40
1
 40
1
 10
21.315892
 20
3.210719
 30
0.0
 10
22.404652
 20
3.722423
 30
0.0
 10
22.510221
 20
3.853392
 30
0.0
 10
22.437460
 20
4.599781
 30
0.0
  0
SPLINE
  5
187
100
AcDbEntity
  8
0
 62
7
100
AcDbSpline
 70
8
 71
3
 72
8
 73
4
 74
0
 40
0
 40
0
 40
0
 40
0
 40
1
 40
1
 40
1
 40
1
 10
22.437460
 20
4.599781
 30
0.0
 10
22.373696
 20
5.256742
 30
0.0
 10
22.249871
 20
5.406496
 30
0.0
 10
21.828125
 20
5.337704
 30
0.0
  0
SPLINE
  5
188
100
AcDbEntity
  8
0
 62
7
100
AcDbSpline
 70
8
 71
3
 72
8
 73
4
 74
0
 40
0
 40
0
 40
0
 40
0
 40
1
 40
1
 40
1
 40
1
 10
21.828125
 20
5.337704
 30
0.0
 10
21.537083
 20
5.290079
 30
0.0
 10
20.584583
 20
5.189273
 30
0.0
 10
19.711458
 20
5.113602
 30
0.0
  0
SPLINE
  5
189
100
AcDbEntity
  8
0
 62
7
100
AcDbSpline
 70
8
 71
3
 72
8
 73
4
 74
0
 40
0
 40
0
 40
0
 40
0
 40
1
 40
1
 40
1
 40
1
 10
19.711458
 20
5.113602
 30
0.0
 10
18.356527
 20
4.996127
 30
0.0
 10
18.017331
 20
5.059892
 30
0.0
 10
17.396354
 20
5.549900
 30
0.0
  0
SPLINE
  5
18a
100
AcDbEntity
  8
0
 62
7
100
AcDbSpline
 70
8
 71
3
 72
8
 73
4
 74
0
 40
0
 40
0
 40
0
 40
0
 40
1
 40
1
 40
1
 40
1
 10
17.396354
 20
5.549900
 30
0.0
 10
16.996040
 20
5.865548
 30
0.0
 10
16.668750
 20
6.234112
 30
0.0
 10
16.668750
 20
6.369315
 30
0.0
  0
SPLINE
  5
18b
100
AcDbEntity
  8
0
 62
7
100
AcDbSpline
 70
8
 71
3
 72
8
 73
4
 74
0
 40
0
 40
0
 40
0
 40
0
 40
1
 40
1
 40
1
 40
1
 10
16.668750
 20
6.369315
 30
0.0
 10
16.668750
 20
6.504252
 30
0.0
 10
17.850908
 20
6.614583
 30
0.0
 10
19.295798
 20
6.614583
 30
0.0
  0
SPLINE
  5
18c
100
AcDbEntity
  8
0
 62
7
100
AcDbSpline
 70
8
 71
3
 72
8
 73
4
 74
0
 40
0
 40
0
 40
0
 40
0
 40
1
 40
1
 40
1
 40
1
 10
19.295798
 20
6.614583
 30
0.0
 10
21.330973
 20
6.614583
 30
0.0
 10
22.016244
 20
6.708246
 30
0.0
 10
22.338506
 20
7.030244
 30
0.0
  0
SPLINE
  5
18d
100
AcDbEntity
  8
0
 62
7
100
AcDbSpline
 70
8
 71
3
 72
8
 73
4
 74
0
 40
0
 40
0
 40
0
 40
0
 40
1
 40
1
 40
1
 40
1
 10
22.338506
 20
7.030244
 30
0.0
 10
22.600444
 20
7.292446
 30
0.0
 10
22.754167
 20
7.913952
 30
0.0
 10
22.754167
 20
8.711142
 30
0.0
  0
SPLINE
  5
18e
100
AcDbEntity
  8
0
 62
7
100
AcDbSpline
 70
8
 71
3
 72
8
 73
4
 74
0
 40
0
 40
0
 40
0
 40
0
 40
1
 40
1
 40
1
 40
1
 10
22.754167
 20
8.711142
 30
0.0
 10
22.754167
 20
9.587177
 30
0.0
 10
22.571340
 20
10.244667
 30
0.0
 10
22.158854
 20
10.850562
 30
0.0
  0
SPLINE
  5
18f
100
AcDbEntity
  8
0
 62
7
100
AcDbSpline
 70
8
 71
3
 72
8
 73
4
 74
0
 40
0
 40
0
 40
0
 40
0
 40
1
 40
1
 40
1
 40
1
 10
22.158854
 20
10.850562
 30
0.0
 10
21.831565
 20
11.331575
 30
0.0
 10
21.234929
 20
11.968692
 30
0.0
 10
20.833027
 20
12.266348
 30
0.0
  0
SPLINE
  5
190
100
AcDbEntity
  8
0
 62
7
100
AcDbSpline
 70
8
 71
3
 72
8
 73
4
 74
0
 40
0
 40
0
 40
0
 40
0
 40
1
 40
1
 40
1
 40
1
 10
20.833027
 20
12.266348
 30
0.0
 10
20.317619
 20
12.648406
 30
0.0
 10
19.616737
 20
12.828587
 30
0.0
 10
18.451777
 20
12.878858
 30
0.0
  0
SPLINE
  5
191
100
AcDbEntity
  8
0
 62
7
100
AcDbSpline
 70
8
 71
3
 72
8
 73
4
 74
0
 40
0
 40
0
 40
0
 40
0
 40
1
 40
1
 40
1
 40
1
 10
18.451777
 20
12.878858
 30
0.0
 10
17.519121
 20
12.919075
 30
0.0
 10
16.485394
 20
12.803981
 30
0.0
 10
16.075290
 20
12.614010
 30
0.0
  0
SPLINE
  5
192
100
AcDbEntity
  8
0
 62
7
100
AcDbSpline
 70
8
 71
3
 72
8
 73
4
 74
0
 40
0
 40
0
 40
0
 40
0
 40
1
 40
1
 40
1
 40
1
 10
26.628460
 20
12.692592
 30
0.0
 10
26.212535
 20
12.567973
 30
0.0
 10
25.634421
 20
12.250737
 30
0.0
 10
25.343379
 20
11.987742
 30
0.0
  0
SPLINE
  5
193
100
AcDbEntity
  8
0
 62
7
100
AcDbSpline
 70
8
 71
3
 72
8
 73
4
 74
0
 40
0
 40
0
 40
0
 40
0
 40
1
 40
1
 40
1
 40
1
 10
25.343379
 20
11.987742
 30
0.0
 10
25.052602
 20
11.724481
 30
0.0
 10
24.603340
 20
11.092656
 30
0.0
 10
24.345106
 20
10.583333
 30
0.0
  0
SPLINE
  5
194
100
AcDbEntity
  8
0
 62
7
100
AcDbSpline
 70
8
 71
3
 72
8
 73
4
 74
0
 40
0
 40
0
 40
0
 40
0
 40
1
 40
1
 40
1
 40
1
 10
24.345106
 20
10.583333
 30
0.0
 10
24.087138
 20
10.074010
 30
0.0
 10
23.792392
 20
9.155642
 30
0.0
 10
23.690262
 20
8.542602
 30
0.0
  0
SPLINE
  5
195
100
AcDbEntity
  8
0
 62
7
100
AcDbSpline
 70
8
 71
3
 72
8
 73
4
 74
0
 40
0
 40
0
 40
0
 40
0
 40
1
 40
1
 40
1
 40
1
 10
23.690262
 20
8.542602
 30
0.0
 10
23.568290
 20
7.809177
 30
0.0
 10
23.644490
 20
6.946900
 30
0.0
 10
23.913571
 20
6.021652
 30
0.0
  0
SPLINE
  5
196
100
AcDbEntity
  8
0
 62
7
100
AcDbSpline
 70
8
 71
3
 72
8
 73
4
 74
0
 40
0
 40
0
 40
0
 40
0
 40
1
 40
1
 40
1
 40
1
 10
23.913571
 20
6.021652
 30
0.0
 10
24.152754
 20
5.199063
 30
0.0
 10
24.643292
 20
4.307946
 30
0.0
 10
25.095994
 20
3.874294
 30
0.0
  0
SPLINE
  5
197
100
AcDbEntity
  8
0
 62
7
100
AcDbSpline
 70
8
 71
3
 72
8
 73
4
 74
0
 40
0
 40
0
 40
0
 40
0
 40
1
 40
1
 40
1
 40
1
 10
25.095994
 20
3.874294
 30
0.0
 10
25.521444
 20
3.466571
 30
0.0
 10
26.314929
 20
2.980002
 30
0.0
 10
26.859706
 20
2.792677
 30
0.0
  0
SPLINE
  5
198
100
AcDbEntity
  8
0
 62
7
100
AcDbSpline
 70
8
 71
3
 72
8
 73
4
 74
0
 40
0
 40
0
 40
0
 40
0
 40
1
 40
1
 40
1
 40
1
 10
26.859706
 20
2.792677
 30
0.0
 10
27.498675
 20
2.573073
 30
0.0
 10
28.181035
 20
2.527035
 30
0.0
 10
28.784021
 20
2.663031
 30
0.0
  0
SPLINE
  5
199
100
AcDbEntity
  8
0
 62
7
100
AcDbSpline
 70
8
 71
3
 72
8
 73
4
 74
0
 40
0
 40
0
 40
0
 40
0
 40
1
 40
1
 40
1
 40
1
 10
28.784021
 20
2.663031
 30
0.0
 10
29.298106
 20
2.779183
 30
0.0
 10
30.067515
 20
3.131873
 30
0.0
 10
30.494288
 20
3.447256
 30
0.0
  0
LWPOLYLINE
  5
19a
100
AcDbEntity
  8
0
 62
7
100
AcDbPolyline
 90
5
 70
0
 10
40.219048
 20
10.098881
 30
0.0
 10
41.142708
 20
10.186458
 30
0.0
 10
41.142708
 20
11.509375
 30
0.0
 10
41.142708
 20
12.832292
 30
0.0
 10
40.321706
 20
12.858750
 30
0.0
  0
SPLINE
  5
19b
100
AcDbEntity
  8
0
 62
7
100
AcDbSpline
 70
8
 71
3
 72
8
 73
4
 74
0
 40
0
 40
0
 40
0
 40
0
 40
1
 40
1
 40
1
 40
1
 10
31.987331
 20
3.333221
 30
0.0
 10
32.382090
 20
2.955131
 30
0.0
 10
32.847227
 20
2.645833
 30
0.0
 10
33.021323
 20
2.645833
 30
0.0
  0
SPLINE
  5
19c
100
AcDbEntity
  8
0
 62
7
100
AcDbSpline
 70
8
 71
3
 72
8
 73
4
 74
0
 40
0
 40
0
 40
0
 40
0
 40
1
 40
1
 40
1
 40
1
 10
33.021323
 20
2.645833
 30
0.0
 10
33.255479
 20
2.645833
 30
0.0
 10
33.337500
 20
3.946790
 30
0.0
 10
33.337500
 20
7.657306
 30
0.0
  0
SPLINE
  5
19d
100
AcDbEntity
  8
0
 62
7
100
AcDbSpline
 70
8
 71
3
 72
8
 73
4
 74
0
 40
0
 40
0
 40
0
 40
0
 40
1
 40
1
 40
1
 40
1
 10
33.337500
 20
7.657306
 30
0.0
 10
33.337500
 20
11.187377
 30
0.0
 10
33.246219
 20
12.725135
 30
0.0
 10
33.028996
 20
12.859279
 30
0.0
  0
SPLINE
  5
19e
100
AcDbEntity
  8
0
 62
7
100
AcDbSpline
 70
8
 71
3
 72
8
 73
4
 74
0
 40
0
 40
0
 40
0
 40
0
 40
1
 40
1
 40
1
 40
1
 10
33.028996
 20
12.859279
 30
0.0
 10
32.848285
 20
12.970933
 30
0.0
 10
32.466227
 20
12.730956
 30
0.0
 10
32.106129
 20
12.279577
 30
0.0
  0
SPLINE
  5
19f
100
AcDbEntity
  8
0
 62
7
100
AcDbSpline
 70
8
 71
3
 72
8
 73
4
 74
0
 40
0
 40
0
 40
0
 40
0
 40
1
 40
1
 40
1
 40
1
 10
32.106129
 20
12.279577
 30
0.0
 10
31.576963
 20
11.616531
 30
0.0
 10
31.426679
 20
11.556206
 30
0.0
 10
31.025571
 20
11.845396
 30
0.0
  0
SPLINE
  5
1a0
100
AcDbEntity
  8
0
 62
7
100
AcDbSpline
 70
8
 71
3
 72
8
 73
4
 74
0
 40
0
 40
0
 40
0
 40
0
 40
1
 40
1
 40
1
 40
1
 10
31.025571
 20
11.845396
 30
0.0
 10
30.769190
 20
12.030340
 30
0.0
 10
30.176258
 20
12.357629
 30
0.0
 10
29.707946
 20
12.573000
 30
0.0
  0
SPLINE
  5
1a1
100
AcDbEntity
  8
0
 62
7
100
AcDbSpline
 70
8
 71
3
 72
8
 73
4
 74
0
 40
0
 40
0
 40
0
 40
0
 40
1
 40
1
 40
1
 40
1
 10
29.707946
 20
12.573000
 30
0.0
 10
29.239633
 20
12.788371
 30
0.0
 10
28.525258
 20
12.954265
 30
0.0
 10
28.120446
 20
12.941829
 30
0.0
  0
SPLINE
  5
1a2
100
AcDbEntity
  8
0
 62
7
100
AcDbSpline
 70
8
 71
3
 72
8
 73
4
 74
0
 40
0
 40
0
 40
0
 40
0
 40
1
 40
1
 40
1
 40
1
 10
28.120446
 20
12.941829
 30
0.0
 10
27.715633
 20
12.929394
 30
0.0
 10
27.044121
 20
12.817210
 30
0.0
 10
26.628460
 20
12.692592
 30
0.0
  0
SPLINE
  5
1a3
100
AcDbEntity
  8
0
 62
7
100
AcDbSpline
 70
8
 71
3
 72
8
 73
4
 74
0
 40
0
 40
0
 40
0
 40
0
 40
1
 40
1
 40
1
 40
1
 10
43.262815
 20
12.479867
 30
0.0
 10
43.188202
 20
12.286192
 30
0.0
 10
43.128935
 20
11.809942
 30
0.0
 10
43.131052
 20
11.421533
 30
0.0
  0
SPLINE
  5
1a4
100
AcDbEntity
  8
0
 62
7
100
AcDbSpline
 70
8
 71
3
 72
8
 73
4
 74
0
 40
0
 40
0
 40
0
 40
0
 40
1
 40
1
 40
1
 40
1
 10
43.131052
 20
11.421533
 30
0.0
 10
43.133433
 20
11.033390
 30
0.0
 10
43.222598
 20
10.587831
 30
0.0
 10
43.329490
 20
10.431727
 30
0.0
  0
SPLINE
  5
1a5
100
AcDbEntity
  8
0
 62
7
100
AcDbSpline
 70
8
 71
3
 72
8
 73
4
 74
0
 40
0
 40
0
 40
0
 40
0
 40
1
 40
1
 40
1
 40
1
 10
43.329490
 20
10.431727
 30
0.0
 10
43.436381
 20
10.275623
 30
0.0
 10
43.732185
 20
10.071100
 30
0.0
 10
43.986979
 20
9.976908
 30
0.0
  0
SPLINE
  5
1a6
100
AcDbEntity
  8
0
 62
7
100
AcDbSpline
 70
8
 71
3
 72
8
 73
4
 74
0
 40
0
 40
0
 40
0
 40
0
 40
1
 40
1
 40
1
 40
1
 10
43.986979
 20
9.976908
 30
0.0
 10
44.375387
 20
9.833769
 30
0.0
 10
44.450000
 20
9.463617
 30
0.0
 10
44.450000
 20
7.681119
 30
0.0
  0
LWPOLYLINE
  5
1a7
100
AcDbEntity
  8
0
 62
7
100
AcDbPolyline
 90
3
 70
0
 10
30.494288
 20
3.447256
 30
0.0
 10
31.269781
 20
4.020873
 30
0.0
 10
31.987331
 20
3.333221
 30
0.0
  0
SPLINE
  5
1a8
100
AcDbEntity
  8
0
 62
7
100
AcDbSpline
 70
8
 71
3
 72
8
 73
4
 74
0
 40
0
 40
0
 40
0
 40
0
 40
1
 40
1
 40
1
 40
1
 10
43.925860
 20
5.556250
 30
0.0
 10
43.594602
 20
5.556250
 30
0.0
 10
43.343513
 20
5.324740
 30
0.0
 10
43.243765
 20
4.926806
 30
0.0
  0
SPLINE
  5
1a9
100
AcDbEntity
  8
0
 62
7
100
AcDbSpline
 70
8
 71
3
 72
8
 73
4
 74
0
 40
0
 40
0
 40
0
 40
0
 40
1
 40
1
 40
1
 40
1
 10
43.243765
 20
4.926806
 30
0.0
 10
43.156981
 20
4.580467
 30
0.0
 10
43.124702
 20
3.955521
 30
0.0
 10
43.172592
 20
3.537744
 30
0.0
  0
LWPOLYLINE
  5
1aa
100
AcDbEntity
  8
0
 62
7
100
AcDbPolyline
 90
3
 70
0
 10
44.450000
 20
7.681119
 30
0.0
 10
44.450000
 20
5.556250
 30
0.0
 10
43.925860
 20
5.556250
 30
0.0
  0
SPLINE
  5
1ab
100
AcDbEntity
  8
0
 62
7
100
AcDbSpline
 70
8
 71
3
 72
8
 73
4
 74
0
 40
0
 40
0
 40
0
 40
0
 40
1
 40
1
 40
1
 40
1
 10
47.625000
 20
5.528204
 30
0.0
 10
47.625000
 20
7.125494
 30
0.0
 10
47.741152
 20
8.737600
 30
0.0
 10
47.882969
 20
9.110927
 30
0.0
  0
SPLINE
  5
1ac
100
AcDbEntity
  8
0
 62
7
100
AcDbSpline
 70
8
 71
3
 72
8
 73
4
 74
0
 40
0
 40
0
 40
0
 40
0
 40
1
 40
1
 40
1
 40
1
 10
47.882969
 20
9.110927
 30
0.0
 10
48.036692
 20
9.515210
 30
0.0
 10
48.347048
 20
9.789583
 30
0.0
 10
48.650790
 20
9.789583
 30
0.0
  0
SPLINE
  5
1ad
100
AcDbEntity
  8
0
 62
7
100
AcDbSpline
 70
8
 71
3
 72
8
 73
4
 74
0
 40
0
 40
0
 40
0
 40
0
 40
1
 40
1
 40
1
 40
1
 10
48.650790
 20
9.789583
 30
0.0
 10
48.984958
 20
9.789583
 30
0.0
 10
49.260919
 20
9.502246
 30
0.0
 10
49.451154
 20
8.956410
 30
0.0
  0
SPLINE
  5
1ae
100
AcDbEntity
  8
0
 62
7
100
AcDbSpline
 70
8
 71
3
 72
8
 73
4
 74
0
 40
0
 40
0
 40
0
 40
0
 40
1
 40
1
 40
1
 40
1
 10
49.451154
 20
8.956410
 30
0.0
 10
49.610962
 20
8.498152
 30
0.0
 10
49.741667
 20
6.884723
 30
0.0
 10
49.741667
 20
5.371306
 30
0.0
  0
LWPOLYLINE
  5
1af
100
AcDbEntity
  8
0
 62
7
100
AcDbPolyline
 90
5
 70
0
 10
43.172592
 20
3.537744
 30
0.0
 10
43.259375
 20
2.778125
 30
0.0
 10
45.442188
 20
2.701396
 30
0.0
 10
47.625000
 20
2.624402
 30
0.0
 10
47.625000
 20
5.528204
 30
0.0
  0
SPLINE
  5
1b0
100
AcDbEntity
  8
0
 62
7
100
AcDbSpline
 70
8
 71
3
 72
8
 73
4
 74
0
 40
0
 40
0
 40
0
 40
0
 40
1
 40
1
 40
1
 40
1
 10
52.916667
 20
5.820833
 30
0.0
 10
52.989427
 20
7.494323
 30
0.0
 10
53.191304
 20
9.101667
 30
0.0
 10
53.365665
 20
9.392708
 30
0.0
  0
SPLINE
  5
1b1
100
AcDbEntity
  8
0
 62
7
100
AcDbSpline
 70
8
 71
3
 72
8
 73
4
 74
0
 40
0
 40
0
 40
0
 40
0
 40
1
 40
1
 40
1
 40
1
 10
53.365665
 20
9.392708
 30
0.0
 10
53.620988
 20
9.819746
 30
0.0
 10
53.774181
 20
9.865254
 30
0.0
 10
54.159415
 20
9.628981
 30
0.0
  0
SPLINE
  5
1b2
100
AcDbEntity
  8
0
 62
7
100
AcDbSpline
 70
8
 71
3
 72
8
 73
4
 74
0
 40
0
 40
0
 40
0
 40
0
 40
1
 40
1
 40
1
 40
1
 10
54.159415
 20
9.628981
 30
0.0
 10
54.571635
 20
9.375775
 30
0.0
 10
54.646513
 20
8.881004
 30
0.0
 10
54.710542
 20
5.990960
 30
0.0
  0
LWPOLYLINE
  5
1b3
100
AcDbEntity
  8
0
 62
7
100
AcDbPolyline
 90
5
 70
0
 10
49.741667
 20
5.371306
 30
0.0
 10
49.741667
 20
2.619375
 30
0.0
 10
51.263021
 20
2.698750
 30
0.0
 10
52.784375
 20
2.778125
 30
0.0
 10
52.916667
 20
5.820833
 30
0.0
  0
SPLINE
  5
1b4
100
AcDbEntity
  8
0
 62
7
100
AcDbSpline
 70
8
 71
3
 72
8
 73
4
 74
0
 40
0
 40
0
 40
0
 40
0
 40
1
 40
1
 40
1
 40
1
 10
59.414569
 20
3.275277
 30
0.0
 10
59.501352
 20
3.621617
 30
0.0
 10
59.533631
 20
4.241800
 30
0.0
 10
59.485742
 20
4.654021
 30
0.0
  0
SPLINE
  5
1b5
100
AcDbEntity
  8
0
 62
7
100
AcDbSpline
 70
8
 71
3
 72
8
 73
4
 74
0
 40
0
 40
0
 40
0
 40
0
 40
1
 40
1
 40
1
 40
1
 10
59.485742
 20
4.654021
 30
0.0
 10
59.422506
 20
5.200385
 30
0.0
 10
59.219835
 20
5.444596
 30
0.0
 10
58.737500
 20
5.556779
 30
0.0
  0
LWPOLYLINE
  5
1b6
100
AcDbEntity
  8
0
 62
7
100
AcDbPolyline
 90
5
 70
0
 10
54.710542
 20
5.990960
 30
0.0
 10
54.784625
 20
2.645833
 30
0.0
 10
57.020619
 20
2.645833
 30
0.0
 10
59.256612
 20
2.645833
 30
0.0
 10
59.414569
 20
3.275277
 30
0.0
  0
SPLINE
  5
1b7
100
AcDbEntity
  8
0
 62
7
100
AcDbSpline
 70
8
 71
3
 72
8
 73
4
 74
0
 40
0
 40
0
 40
0
 40
0
 40
1
 40
1
 40
1
 40
1
 10
57.937929
 20
8.477515
 30
0.0
 10
57.851146
 20
10.210800
 30
0.0
 10
57.658794
 20
11.460162
 30
0.0
 10
57.423050
 20
11.821319
 30
0.0
  0
SPLINE
  5
1b8
100
AcDbEntity
  8
0
 62
7
100
AcDbSpline
 70
8
 71
3
 72
8
 73
4
 74
0
 40
0
 40
0
 40
0
 40
0
 40
1
 40
1
 40
1
 40
1
 10
57.423050
 20
11.821319
 30
0.0
 10
57.215617
 20
12.138290
 30
0.0
 10
56.766354
 20
12.525375
 30
0.0
 10
56.424248
 20
12.681215
 30
0.0
  0
SPLINE
  5
1b9
100
AcDbEntity
  8
0
 62
7
100
AcDbSpline
 70
8
 71
3
 72
8
 73
4
 74
0
 40
0
 40
0
 40
0
 40
0
 40
1
 40
1
 40
1
 40
1
 10
56.424248
 20
12.681215
 30
0.0
 10
56.082142
 20
12.837054
 30
0.0
 10
55.514346
 20
12.964583
 30
0.0
 10
55.162450
 20
12.964583
 30
0.0
  0
SPLINE
  5
1ba
100
AcDbEntity
  8
0
 62
7
100
AcDbSpline
 70
8
 71
3
 72
8
 73
4
 74
0
 40
0
 40
0
 40
0
 40
0
 40
1
 40
1
 40
1
 40
1
 10
55.162450
 20
12.964583
 30
0.0
 10
54.810554
 20
12.964583
 30
0.0
 10
54.101471
 20
12.594960
 30
0.0
 10
53.587121
 20
12.143052
 30
0.0
  0
LWPOLYLINE
  5
1bb
100
AcDbEntity
  8
0
 62
7
100
AcDbPolyline
 90
3
 70
0
 10
58.737500
 20
5.556779
 30
0.0
 10
58.076042
 20
5.710502
 30
0.0
 10
57.937929
 20
8.477515
 30
0.0
  0
SPLINE
  5
1bc
100
AcDbEntity
  8
0
 62
7
100
AcDbSpline
 70
8
 71
3
 72
8
 73
4
 74
0
 40
0
 40
0
 40
0
 40
0
 40
1
 40
1
 40
1
 40
1
 10
51.884263
 20
12.143052
 30
0.0
 10
51.335781
 20
12.730162
 30
0.0
 10
50.875935
 20
12.964583
 30
0.0
 10
50.272685
 20
12.964583
 30
0.0
  0
SPLINE
  5
1bd
100
AcDbEntity
  8
0
 62
7
100
AcDbSpline
 70
8
 71
3
 72
8
 73
4
 74
0
 40
0
 40
0
 40
0
 40
0
 40
1
 40
1
 40
1
 40
1
 10
50.272685
 20
12.964583
 30
0.0
 10
49.808077
 20
12.964583
 30
0.0
 10
49.125452
 20
12.726458
 30
0.0
 10
48.755565
 20
12.435417
 30
0.0
  0
SPLINE
  5
1be
100
AcDbEntity
  8
0
 62
7
100
AcDbSpline
 70
8
 71
3
 72
8
 73
4
 74
0
 40
0
 40
0
 40
0
 40
0
 40
1
 40
1
 40
1
 40
1
 10
48.755565
 20
12.435417
 30
0.0
 10
48.385413
 20
12.144375
 30
0.0
 10
47.993565
 20
11.906250
 30
0.0
 10
47.884821
 20
11.906250
 30
0.0
  0
SPLINE
  5
1bf
100
AcDbEntity
  8
0
 62
7
100
AcDbSpline
 70
8
 71
3
 72
8
 73
4
 74
0
 40
0
 40
0
 40
0
 40
0
 40
1
 40
1
 40
1
 40
1
 10
47.884821
 20
11.906250
 30
0.0
 10
47.775813
 20
11.906250
 30
0.0
 10
47.624206
 20
12.145698
 30
0.0
 10
47.547477
 20
12.438592
 30
0.0
  0
SPLINE
  5
1c0
100
AcDbEntity
  8
0
 62
7
100
AcDbSpline
 70
8
 71
3
 72
8
 73
4
 74
0
 40
0
 40
0
 40
0
 40
0
 40
1
 40
1
 40
1
 40
1
 10
47.547477
 20
12.438592
 30
0.0
 10
47.421535
 20
12.920662
 30
0.0
 10
47.220452
 20
12.964319
 30
0.0
 10
45.403558
 20
12.901612
 30
0.0
  0
SPLINE
  5
1c1
100
AcDbEntity
  8
0
 62
7
100
AcDbSpline
 70
8
 71
3
 72
8
 73
4
 74
0
 40
0
 40
0
 40
0
 40
0
 40
1
 40
1
 40
1
 40
1
 10
45.403558
 20
12.901612
 30
0.0
 10
44.030106
 20
12.853987
 30
0.0
 10
43.355683
 20
12.721167
 30
0.0
 10
43.262815
 20
12.479867
 30
0.0
  0
SPLINE
  5
1c2
100
AcDbEntity
  8
0
 62
7
100
AcDbSpline
 70
8
 71
3
 72
8
 73
4
 74
0
 40
0
 40
0
 40
0
 40
0
 40
1
 40
1
 40
1
 40
1
 10
62.717098
 20
12.619037
 30
0.0
 10
62.144010
 20
12.421129
 30
0.0
 10
61.502925
 20
11.876881
 30
0.0
 10
61.001804
 20
11.161977
 30
0.0
  0
SPLINE
  5
1c3
100
AcDbEntity
  8
0
 62
7
100
AcDbSpline
 70
8
 71
3
 72
8
 73
4
 74
0
 40
0
 40
0
 40
0
 40
0
 40
1
 40
1
 40
1
 40
1
 10
61.001804
 20
11.161977
 30
0.0
 10
60.325794
 20
10.198365
 30
0.0
 10
60.186094
 20
9.721321
 30
0.0
 10
60.104073
 20
8.095192
 30
0.0
  0
SPLINE
  5
1c4
100
AcDbEntity
  8
0
 62
7
100
AcDbSpline
 70
8
 71
3
 72
8
 73
4
 74
0
 40
0
 40
0
 40
0
 40
0
 40
1
 40
1
 40
1
 40
1
 10
60.104073
 20
8.095192
 30
0.0
 10
60.024963
 20
6.529652
 30
0.0
 10
60.110952
 20
5.965296
 30
0.0
 10
60.563654
 20
5.078148
 30
0.0
  0
SPLINE
  5
1c5
100
AcDbEntity
  8
0
 62
7
100
AcDbSpline
 70
8
 71
3
 72
8
 73
4
 74
0
 40
0
 40
0
 40
0
 40
0
 40
1
 40
1
 40
1
 40
1
 10
60.563654
 20
5.078148
 30
0.0
 10
60.869777
 20
4.477808
 30
0.0
 10
61.564308
 20
3.685117
 30
0.0
 10
62.106969
 20
3.316288
 30
0.0
  0
SPLINE
  5
1c6
100
AcDbEntity
  8
0
 62
7
100
AcDbSpline
 70
8
 71
3
 72
8
 73
4
 74
0
 40
0
 40
0
 40
0
 40
0
 40
1
 40
1
 40
1
 40
1
 10
62.106969
 20
3.316288
 30
0.0
 10
62.832721
 20
2.823104
 30
0.0
 10
63.438088
 20
2.645833
 30
0.0
 10
64.396408
 20
2.645833
 30
0.0
  0
SPLINE
  5
1c7
100
AcDbEntity
  8
0
 62
7
100
AcDbSpline
 70
8
 71
3
 72
8
 73
4
 74
0
 40
0
 40
0
 40
0
 40
0
 40
1
 40
1
 40
1
 40
1
 10
64.396408
 20
2.645833
 30
0.0
 10
65.378277
 20
2.645833
 30
0.0
 10
65.912471
 20
2.808817
 30
0.0
 10
66.566256
 20
3.307292
 30
0.0
  0
SPLINE
  5
1c8
100
AcDbEntity
  8
0
 62
7
100
AcDbSpline
 70
8
 71
3
 72
8
 73
4
 74
0
 40
0
 40
0
 40
0
 40
0
 40
1
 40
1
 40
1
 40
1
 10
66.566256
 20
3.307292
 30
0.0
 10
67.043300
 20
3.671094
 30
0.0
 10
67.516904
 20
3.968750
 30
0.0
 10
67.619298
 20
3.968750
 30
0.0
  0
SPLINE
  5
1c9
100
AcDbEntity
  8
0
 62
7
100
AcDbSpline
 70
8
 71
3
 72
8
 73
4
 74
0
 40
0
 40
0
 40
0
 40
0
 40
1
 40
1
 40
1
 40
1
 10
67.619298
 20
3.968750
 30
0.0
 10
67.721427
 20
3.968750
 30
0.0
 10
68.080731
 20
3.671094
 30
0.0
 10
68.418075
 20
3.307292
 30
0.0
  0
SPLINE
  5
1ca
100
AcDbEntity
  8
0
 62
7
100
AcDbSpline
 70
8
 71
3
 72
8
 73
4
 74
0
 40
0
 40
0
 40
0
 40
0
 40
1
 40
1
 40
1
 40
1
 10
68.418075
 20
3.307292
 30
0.0
 10
68.755154
 20
2.943490
 30
0.0
 10
69.155733
 20
2.645833
 30
0.0
 10
69.308133
 20
2.645833
 30
0.0
  0
SPLINE
  5
1cb
100
AcDbEntity
  8
0
 62
7
100
AcDbSpline
 70
8
 71
3
 72
8
 73
4
 74
0
 40
0
 40
0
 40
0
 40
0
 40
1
 40
1
 40
1
 40
1
 10
69.308133
 20
2.645833
 30
0.0
 10
69.491754
 20
2.645833
 30
0.0
 10
69.585417
 20
4.345252
 30
0.0
 10
69.585417
 20
7.672917
 30
0.0
  0
SPLINE
  5
1cc
100
AcDbEntity
  8
0
 62
7
100
AcDbSpline
 70
8
 71
3
 72
8
 73
4
 74
0
 40
0
 40
0
 40
0
 40
0
 40
1
 40
1
 40
1
 40
1
 10
69.585417
 20
7.672917
 30
0.0
 10
69.585417
 20
11.372321
 30
0.0
 10
69.502602
 20
12.700000
 30
0.0
 10
69.271621
 20
12.700000
 30
0.0
  0
SPLINE
  5
1cd
100
AcDbEntity
  8
0
 62
7
100
AcDbSpline
 70
8
 71
3
 72
8
 73
4
 74
0
 40
0
 40
0
 40
0
 40
0
 40
1
 40
1
 40
1
 40
1
 10
69.271621
 20
12.700000
 30
0.0
 10
69.099112
 20
12.700000
 30
0.0
 10
68.677102
 20
12.436210
 30
0.0
 10
68.333937
 20
12.113419
 30
0.0
  0
SPLINE
  5
1ce
100
AcDbEntity
  8
0
 62
7
100
AcDbSpline
 70
8
 71
3
 72
8
 73
4
 74
0
 40
0
 40
0
 40
0
 40
0
 40
1
 40
1
 40
1
 40
1
 10
68.333937
 20
12.113419
 30
0.0
 10
67.814825
 20
11.626056
 30
0.0
 10
67.633321
 20
11.582400
 30
0.0
 10
67.258406
 20
11.854392
 30
0.0
  0
SPLINE
  5
1cf
100
AcDbEntity
  8
0
 62
7
100
AcDbSpline
 70
8
 71
3
 72
8
 73
4
 74
0
 40
0
 40
0
 40
0
 40
0
 40
1
 40
1
 40
1
 40
1
 10
67.258406
 20
11.854392
 30
0.0
 10
67.010227
 20
12.034308
 30
0.0
 10
66.424175
 20
12.357629
 30
0.0
 10
65.955863
 20
12.573000
 30
0.0
  0
SPLINE
  5
1d0
100
AcDbEntity
  8
0
 62
7
100
AcDbSpline
 70
8
 71
3
 72
8
 73
4
 74
0
 40
0
 40
0
 40
0
 40
0
 40
1
 40
1
 40
1
 40
1
 10
65.955863
 20
12.573000
 30
0.0
 10
65.487550
 20
12.788371
 30
0.0
 10
64.773175
 20
12.957969
 30
0.0
 10
64.368363
 20
12.949767
 30
0.0
  0
SPLINE
  5
1d1
100
AcDbEntity
  8
0
 62
7
100
AcDbSpline
 70
8
 71
3
 72
8
 73
4
 74
0
 40
0
 40
0
 40
0
 40
0
 40
1
 40
1
 40
1
 40
1
 10
64.368363
 20
12.949767
 30
0.0
 10
63.963550
 20
12.941565
 30
0.0
 10
63.220600
 20
12.792604
 30
0.0
 10
62.717098
 20
12.619037
 30
0.0
  0
SPLINE
  5
1d2
100
AcDbEntity
  8
0
 62
7
100
AcDbSpline
 70
8
 71
3
 72
8
 73
4
 74
0
 40
0
 40
0
 40
0
 40
0
 40
1
 40
1
 40
1
 40
1
 10
71.364475
 20
12.746831
 30
0.0
 10
71.005965
 20
12.679627
 30
0.0
 10
70.908333
 20
12.382235
 30
0.0
 10
70.908333
 20
11.357769
 30
0.0
  0
SPLINE
  5
1d3
100
AcDbEntity
  8
0
 62
7
100
AcDbSpline
 70
8
 71
3
 72
8
 73
4
 74
0
 40
0
 40
0
 40
0
 40
0
 40
1
 40
1
 40
1
 40
1
 10
70.908333
 20
11.357769
 30
0.0
 10
70.908333
 20
10.257367
 30
0.0
 10
70.986121
 20
10.054167
 30
0.0
 10
71.406544
 20
10.054167
 30
0.0
  0
SPLINE
  5
1d4
100
AcDbEntity
  8
0
 62
7
100
AcDbSpline
 70
8
 71
3
 72
8
 73
4
 74
0
 40
0
 40
0
 40
0
 40
0
 40
1
 40
1
 40
1
 40
1
 10
71.406544
 20
10.054167
 30
0.0
 10
71.699702
 20
10.054167
 30
0.0
 10
71.970635
 20
9.808898
 30
0.0
 10
72.064563
 20
9.458854
 30
0.0
  0
SPLINE
  5
1d5
100
AcDbEntity
  8
0
 62
7
100
AcDbSpline
 70
8
 71
3
 72
8
 73
4
 74
0
 40
0
 40
0
 40
0
 40
0
 40
1
 40
1
 40
1
 40
1
 10
72.064563
 20
9.458854
 30
0.0
 10
72.152140
 20
9.131565
 30
0.0
 10
72.225694
 20
8.491537
 30
0.0
 10
72.227546
 20
8.036719
 30
0.0
  0
SPLINE
  5
1d6
100
AcDbEntity
  8
0
 62
7
100
AcDbSpline
 70
8
 71
3
 72
8
 73
4
 74
0
 40
0
 40
0
 40
0
 40
0
 40
1
 40
1
 40
1
 40
1
 10
72.227546
 20
8.036719
 30
0.0
 10
72.229663
 20
7.581900
 30
0.0
 10
72.156902
 20
6.837892
 30
0.0
 10
72.065885
 20
6.383073
 30
0.0
  0
SPLINE
  5
1d7
100
AcDbEntity
  8
0
 62
7
100
AcDbSpline
 70
8
 71
3
 72
8
 73
4
 74
0
 40
0
 40
0
 40
0
 40
0
 40
1
 40
1
 40
1
 40
1
 10
72.065885
 20
6.383073
 30
0.0
 10
71.951321
 20
5.809721
 30
0.0
 10
71.748385
 20
5.556250
 30
0.0
 10
71.404427
 20
5.556250
 30
0.0
  0
SPLINE
  5
1d8
100
AcDbEntity
  8
0
 62
7
100
AcDbSpline
 70
8
 71
3
 72
8
 73
4
 74
0
 40
0
 40
0
 40
0
 40
0
 40
1
 40
1
 40
1
 40
1
 10
71.404427
 20
5.556250
 30
0.0
 10
70.979506
 20
5.556250
 30
0.0
 10
70.908333
 20
5.347494
 30
0.0
 10
70.908333
 20
4.101042
 30
0.0
  0
LWPOLYLINE
  5
1d9
100
AcDbEntity
  8
0
 62
7
100
AcDbPolyline
 90
3
 70
0
 10
53.587121
 20
12.143052
 30
0.0
 10
52.651554
 20
11.321785
 30
0.0
 10
51.884263
 20
12.143052
 30
0.0
  0
SPLINE
  5
1da
100
AcDbEntity
  8
0
 62
7
100
AcDbSpline
 70
8
 71
3
 72
8
 73
4
 74
0
 40
0
 40
0
 40
0
 40
0
 40
1
 40
1
 40
1
 40
1
 10
76.464583
 20
4.082521
 30
0.0
 10
76.464583
 20
5.371306
 30
0.0
 10
76.403200
 20
5.528204
 30
0.0
 10
75.869271
 20
5.603875
 30
0.0
  0
SPLINE
  5
1db
100
AcDbEntity
  8
0
 62
7
100
AcDbSpline
 70
8
 71
3
 72
8
 73
4
 74
0
 40
0
 40
0
 40
0
 40
0
 40
1
 40
1
 40
1
 40
1
 10
75.869271
 20
5.603875
 30
0.0
 10
75.350158
 20
5.677694
 30
0.0
 10
75.263640
 20
5.867400
 30
0.0
 10
75.193790
 20
7.083954
 30
0.0
  0
SPLINE
  5
1dc
100
AcDbEntity
  8
0
 62
7
100
AcDbSpline
 70
8
 71
3
 72
8
 73
4
 74
0
 40
0
 40
0
 40
0
 40
0
 40
1
 40
1
 40
1
 40
1
 10
75.193790
 20
7.083954
 30
0.0
 10
75.122087
 20
8.332258
 30
0.0
 10
75.196700
 20
8.562181
 30
0.0
 10
75.901021
 20
9.266767
 30
0.0
  0
SPLINE
  5
1dd
100
AcDbEntity
  8
0
 62
7
100
AcDbSpline
 70
8
 71
3
 72
8
 73
4
 74
0
 40
0
 40
0
 40
0
 40
0
 40
1
 40
1
 40
1
 40
1
 10
75.901021
 20
9.266767
 30
0.0
 10
76.341023
 20
9.706769
 30
0.0
 10
76.971260
 20
10.054167
 30
0.0
 10
77.329242
 20
10.054167
 30
0.0
  0
SPLINE
  5
1de
100
AcDbEntity
  8
0
 62
7
100
AcDbSpline
 70
8
 71
3
 72
8
 73
4
 74
0
 40
0
 40
0
 40
0
 40
0
 40
1
 40
1
 40
1
 40
1
 10
77.329242
 20
10.054167
 30
0.0
 10
77.681667
 20
10.054167
 30
0.0
 10
78.196810
 20
9.803606
 30
0.0
 10
78.474094
 20
9.497219
 30
0.0
  0
SPLINE
  5
1df
100
AcDbEntity
  8
0
 62
7
100
AcDbSpline
 70
8
 71
3
 72
8
 73
4
 74
0
 40
0
 40
0
 40
0
 40
0
 40
1
 40
1
 40
1
 40
1
 10
78.474094
 20
9.497219
 30
0.0
 10
78.896898
 20
9.030229
 30
0.0
 10
78.993206
 20
8.432535
 30
0.0
 10
79.072052
 20
5.793052
 30
0.0
  0
LWPOLYLINE
  5
1e0
100
AcDbEntity
  8
0
 62
7
100
AcDbPolyline
 90
5
 70
0
 10
70.908333
 20
4.101042
 30
0.0
 10
70.908333
 20
2.645833
 30
0.0
 10
73.686458
 20
2.645833
 30
0.0
 10
76.464583
 20
2.645833
 30
0.0
 10
76.464583
 20
4.082521
 30
0.0
  0
SPLINE
  5
1e1
100
AcDbEntity
  8
0
 62
7
100
AcDbSpline
 70
8
 71
3
 72
8
 73
4
 74
0
 40
0
 40
0
 40
0
 40
0
 40
1
 40
1
 40
1
 40
1
 10
82.274304
 20
7.474479
 30
0.0
 10
82.267954
 20
8.602927
 30
0.0
 10
82.072163
 20
9.931400
 30
0.0
 10
81.799112
 20
10.700808
 30
0.0
  0
SPLINE
  5
1e2
100
AcDbEntity
  8
0
 62
7
100
AcDbSpline
 70
8
 71
3
 72
8
 73
4
 74
0
 40
0
 40
0
 40
0
 40
0
 40
1
 40
1
 40
1
 40
1
 10
81.799112
 20
10.700808
 30
0.0
 10
81.484787
 20
11.586369
 30
0.0
 10
81.082356
 20
12.157340
 30
0.0
 10
80.553190
 20
12.467431
 30
0.0
  0
SPLINE
  5
1e3
100
AcDbEntity
  8
0
 62
7
100
AcDbSpline
 70
8
 71
3
 72
8
 73
4
 74
0
 40
0
 40
0
 40
0
 40
0
 40
1
 40
1
 40
1
 40
1
 10
80.553190
 20
12.467431
 30
0.0
 10
80.123506
 20
12.719579
 30
0.0
 10
79.233977
 20
12.934685
 30
0.0
 10
78.576488
 20
12.945269
 30
0.0
  0
SPLINE
  5
1e4
100
AcDbEntity
  8
0
 62
7
100
AcDbSpline
 70
8
 71
3
 72
8
 73
4
 74
0
 40
0
 40
0
 40
0
 40
0
 40
1
 40
1
 40
1
 40
1
 10
78.576488
 20
12.945269
 30
0.0
 10
77.720560
 20
12.959027
 30
0.0
 10
77.109902
 20
12.780169
 30
0.0
 10
76.425690
 20
12.315296
 30
0.0
  0
SPLINE
  5
1e5
100
AcDbEntity
  8
0
 62
7
100
AcDbSpline
 70
8
 71
3
 72
8
 73
4
 74
0
 40
0
 40
0
 40
0
 40
0
 40
1
 40
1
 40
1
 40
1
 10
76.425690
 20
12.315296
 30
0.0
 10
75.900227
 20
11.958108
 30
0.0
 10
75.396196
 20
11.739827
 30
0.0
 10
75.305973
 20
11.830315
 30
0.0
  0
SPLINE
  5
1e6
100
AcDbEntity
  8
0
 62
7
100
AcDbSpline
 70
8
 71
3
 72
8
 73
4
 74
0
 40
0
 40
0
 40
0
 40
0
 40
1
 40
1
 40
1
 40
1
 10
75.305973
 20
11.830315
 30
0.0
 10
75.215485
 20
11.920538
 30
0.0
 10
75.141667
 20
12.191471
 30
0.0
 10
75.141667
 20
12.432506
 30
0.0
  0
SPLINE
  5
1e7
100
AcDbEntity
  8
0
 62
7
100
AcDbSpline
 70
8
 71
3
 72
8
 73
4
 74
0
 40
0
 40
0
 40
0
 40
0
 40
1
 40
1
 40
1
 40
1
 10
75.141667
 20
12.432506
 30
0.0
 10
75.141667
 20
12.795515
 30
0.0
 10
74.857769
 20
12.867217
 30
0.0
 10
73.481142
 20
12.851342
 30
0.0
  0
SPLINE
  5
1e8
100
AcDbEntity
  8
0
 62
7
100
AcDbSpline
 70
8
 71
3
 72
8
 73
4
 74
0
 40
0
 40
0
 40
0
 40
0
 40
1
 40
1
 40
1
 40
1
 10
73.481142
 20
12.851342
 30
0.0
 10
72.567800
 20
12.840758
 30
0.0
 10
71.615300
 20
12.793927
 30
0.0
 10
71.364475
 20
12.746831
 30
0.0
  0
SPLINE
  5
1e9
100
AcDbEntity
  8
0
 62
7
100
AcDbSpline
 70
8
 71
3
 72
8
 73
4
 74
0
 40
0
 40
0
 40
0
 40
0
 40
1
 40
1
 40
1
 40
1
 10
84.997396
 20
12.769056
 30
0.0
 10
84.793931
 20
12.699471
 30
0.0
 10
84.666667
 20
12.162631
 30
0.0
 10
84.666667
 20
11.373379
 30
0.0
  0
SPLINE
  5
1ea
100
AcDbEntity
  8
0
 62
7
100
AcDbSpline
 70
8
 71
3
 72
8
 73
4
 74
0
 40
0
 40
0
 40
0
 40
0
 40
1
 40
1
 40
1
 40
1
 10
84.666667
 20
11.373379
 30
0.0
 10
84.666667
 20
10.244931
 30
0.0
 10
84.738104
 20
10.080890
 30
0.0
 10
85.261979
 20
10.006542
 30
0.0
  0
LWPOLYLINE
  5
1eb
100
AcDbEntity
  8
0
 62
7
100
AcDbPolyline
 90
9
 70
0
 10
79.072052
 20
5.793052
 30
0.0
 10
79.166244
 20
2.645833
 30
0.0
 10
81.387156
 20
2.645833
 30
0.0
 10
83.608333
 20
2.645833
 30
0.0
 10
83.608333
 20
4.101042
 30
0.0
 10
83.608333
 20
5.556250
 30
0.0
 10
82.946875
 20
5.556250
 30
0.0
 10
82.285417
 20
5.556250
 30
0.0
 10
82.274304
 20
7.474479
 30
0.0
  0
SPLINE
  5
1ec
100
AcDbEntity
  8
0
 62
7
100
AcDbSpline
 70
8
 71
3
 72
8
 73
4
 74
0
 40
0
 40
0
 40
0
 40
0
 40
1
 40
1
 40
1
 40
1
 10
90.487500
 20
4.082521
 30
0.0
 10
90.487500
 20
5.371306
 30
0.0
 10
90.426117
 20
5.528204
 30
0.0
 10
89.892188
 20
5.603875
 30
0.0
  0
LWPOLYLINE
  5
1ed
100
AcDbEntity
  8
0
 62
7
100
AcDbPolyline
 90
11
 70
0
 10
85.261979
 20
10.006542
 30
0.0
 10
85.857292
 20
9.921875
 30
0.0
 10
85.934021
 20
7.739062
 30
0.0
 10
86.011015
 20
5.556250
 30
0.0
 10
85.338708
 20
5.556250
 30
0.0
 10
84.666667
 20
5.556250
 30
0.0
 10
84.666667
 20
4.101042
 30
0.0
 10
84.666667
 20
2.645833
 30
0.0
 10
87.577083
 20
2.645833
 30
0.0
 10
90.487500
 20
2.645833
 30
0.0
 10
90.487500
 20
4.082521
 30
0.0
  0
SPLINE
  5
1ee
100
AcDbEntity
  8
0
 62
7
100
AcDbSpline
 70
8
 71
3
 72
8
 73
4
 74
0
 40
0
 40
0
 40
0
 40
0
 40
1
 40
1
 40
1
 40
1
 10
89.223056
 20
9.194271
 30
0.0
 10
89.169875
 20
11.719983
 30
0.0
 10
89.059015
 20
12.707144
 30
0.0
 10
88.826181
 20
12.725665
 30
0.0
  0
SPLINE
  5
1ef
100
AcDbEntity
  8
0
 62
7
100
AcDbSpline
 70
8
 71
3
 72
8
 73
4
 74
0
 40
0
 40
0
 40
0
 40
0
 40
1
 40
1
 40
1
 40
1
 10
88.826181
 20
12.725665
 30
0.0
 10
88.648381
 20
12.739952
 30
0.0
 10
87.788750
 20
12.780962
 30
0.0
 10
86.915625
 20
12.816946
 30
0.0
  0
SPLINE
  5
1f0
100
AcDbEntity
  8
0
 62
7
100
AcDbSpline
 70
8
 71
3
 72
8
 73
4
 74
0
 40
0
 40
0
 40
0
 40
0
 40
1
 40
1
 40
1
 40
1
 10
86.915625
 20
12.816946
 30
0.0
 10
86.042500
 20
12.852665
 30
0.0
 10
85.179429
 20
12.831233
 30
0.0
 10
84.997396
 20
12.769056
 30
0.0
  0
SPLINE
  5
1f1
100
AcDbEntity
  8
0
 62
7
100
AcDbSpline
 70
8
 71
3
 72
8
 73
4
 74
0
 40
0
 40
0
 40
0
 40
0
 40
1
 40
1
 40
1
 40
1
 10
93.500840
 20
12.476162
 30
0.0
 10
93.047873
 20
12.191471
 30
0.0
 10
92.437215
 20
11.619442
 30
0.0
 10
92.143527
 20
11.204840
 30
0.0
  0
SPLINE
  5
1f2
100
AcDbEntity
  8
0
 62
7
100
AcDbSpline
 70
8
 71
3
 72
8
 73
4
 74
0
 40
0
 40
0
 40
0
 40
0
 40
1
 40
1
 40
1
 40
1
 10
92.143527
 20
11.204840
 30
0.0
 10
91.849840
 20
10.790237
 30
0.0
 10
91.461696
 20
9.786938
 30
0.0
 10
91.281250
 20
8.974931
 30
0.0
  0
SPLINE
  5
1f3
100
AcDbEntity
  8
0
 62
7
100
AcDbSpline
 70
8
 71
3
 72
8
 73
4
 74
0
 40
0
 40
0
 40
0
 40
0
 40
1
 40
1
 40
1
 40
1
 10
91.281250
 20
8.974931
 30
0.0
 10
91.001850
 20
7.719483
 30
0.0
 10
91.016402
 20
7.280010
 30
0.0
 10
91.379410
 20
6.031177
 30
0.0
  0
SPLINE
  5
1f4
100
AcDbEntity
  8
0
 62
7
100
AcDbSpline
 70
8
 71
3
 72
8
 73
4
 74
0
 40
0
 40
0
 40
0
 40
0
 40
1
 40
1
 40
1
 40
1
 10
91.379410
 20
6.031177
 30
0.0
 10
91.691883
 20
4.956440
 30
0.0
 10
92.090346
 20
4.306623
 30
0.0
 10
92.867427
 20
3.604683
 30
0.0
  0
SPLINE
  5
1f5
100
AcDbEntity
  8
0
 62
7
100
AcDbSpline
 70
8
 71
3
 72
8
 73
4
 74
0
 40
0
 40
0
 40
0
 40
0
 40
1
 40
1
 40
1
 40
1
 10
92.867427
 20
3.604683
 30
0.0
 10
93.581538
 20
2.959365
 30
0.0
 10
94.209658
 20
2.632340
 30
0.0
 10
94.787773
 20
2.604558
 30
0.0
  0
SPLINE
  5
1f6
100
AcDbEntity
  8
0
 62
7
100
AcDbSpline
 70
8
 71
3
 72
8
 73
4
 74
0
 40
0
 40
0
 40
0
 40
0
 40
1
 40
1
 40
1
 40
1
 10
94.787773
 20
2.604558
 30
0.0
 10
95.260319
 20
2.582069
 30
0.0
 10
95.944531
 20
2.588948
 30
0.0
 10
96.308333
 20
2.620169
 30
0.0
  0
SPLINE
  5
1f7
100
AcDbEntity
  8
0
 62
7
100
AcDbSpline
 70
8
 71
3
 72
8
 73
4
 74
0
 40
0
 40
0
 40
0
 40
0
 40
1
 40
1
 40
1
 40
1
 10
96.308333
 20
2.620169
 30
0.0
 10
96.672135
 20
2.651390
 30
0.0
 10
97.402385
 20
2.960158
 30
0.0
 10
97.931288
 20
3.306233
 30
0.0
  0
LWPOLYLINE
  5
1f8
100
AcDbEntity
  8
0
 62
7
100
AcDbPolyline
 90
3
 70
0
 10
89.892188
 20
5.603875
 30
0.0
 10
89.296875
 20
5.688542
 30
0.0
 10
89.223056
 20
9.194271
 30
0.0
  0
SPLINE
  5
1f9
100
AcDbEntity
  8
0
 62
7
100
AcDbSpline
 70
8
 71
3
 72
8
 73
4
 74
0
 40
0
 40
0
 40
0
 40
0
 40
1
 40
1
 40
1
 40
1
 10
99.498944
 20
3.290888
 30
0.0
 10
99.832054
 20
2.936081
 30
0.0
 10
100.262531
 20
2.645833
 30
0.0
 10
100.455412
 20
2.645833
 30
0.0
  0
SPLINE
  5
1fa
100
AcDbEntity
  8
0
 62
7
100
AcDbSpline
 70
8
 71
3
 72
8
 73
4
 74
0
 40
0
 40
0
 40
0
 40
0
 40
1
 40
1
 40
1
 40
1
 10
100.455412
 20
2.645833
 30
0.0
 10
100.734813
 20
2.645833
 30
0.0
 10
100.806250
 20
3.697023
 30
0.0
 10
100.806250
 20
7.805208
 30
0.0
  0
SPLINE
  5
1fb
100
AcDbEntity
  8
0
 62
7
100
AcDbSpline
 70
8
 71
3
 72
8
 73
4
 74
0
 40
0
 40
0
 40
0
 40
0
 40
1
 40
1
 40
1
 40
1
 10
100.806250
 20
7.805208
 30
0.0
 10
100.806250
 20
12.079817
 30
0.0
 10
100.741956
 20
12.964583
 30
0.0
 10
100.431335
 20
12.964583
 30
0.0
  0
SPLINE
  5
1fc
100
AcDbEntity
  8
0
 62
7
100
AcDbSpline
 70
8
 71
3
 72
8
 73
4
 74
0
 40
0
 40
0
 40
0
 40
0
 40
1
 40
1
 40
1
 40
1
 10
100.431335
 20
12.964583
 30
0.0
 10
100.225225
 20
12.964583
 30
0.0
 10
99.818296
 20
12.637294
 30
0.0
 10
99.526990
 20
12.237508
 30
0.0
  0
LWPOLYLINE
  5
1fd
100
AcDbEntity
  8
0
 62
7
100
AcDbPolyline
 90
3
 70
0
 10
97.931288
 20
3.306233
 30
0.0
 10
98.893048
 20
3.935677
 30
0.0
 10
99.498944
 20
3.290888
 30
0.0
  0
SPLINE
  5
1fe
100
AcDbEntity
  8
0
 62
7
100
AcDbSpline
 70
8
 71
3
 72
8
 73
4
 74
0
 40
0
 40
0
 40
0
 40
0
 40
1
 40
1
 40
1
 40
1
 10
98.119935
 20
12.158927
 30
0.0
 10
97.501075
 20
12.616392
 30
0.0
 10
96.812894
 20
12.834937
 30
0.0
 10
95.783400
 20
12.900554
 30
0.0
  0
SPLINE
  5
1ff
100
AcDbEntity
  8
0
 62
7
100
AcDbSpline
 70
8
 71
3
 72
8
 73
4
 74
0
 40
0
 40
0
 40
0
 40
0
 40
1
 40
1
 40
1
 40
1
 10
95.783400
 20
12.900554
 30
0.0
 10
94.675060
 20
12.971462
 30
0.0
 10
94.125785
 20
12.869333
 30
0.0
 10
93.500840
 20
12.476162
 30
0.0
  0
SPLINE
  5
200
100
AcDbEntity
  8
0
 62
7
100
AcDbSpline
 70
8
 71
3
 72
8
 73
4
 74
0
 40
0
 40
0
 40
0
 40
0
 40
1
 40
1
 40
1
 40
1
 10
17.039431
 20
9.919758
 30
0.0
 10
16.674306
 20
9.554633
 30
0.0
 10
16.448617
 20
9.137915
 30
0.0
 10
16.537781
 20
8.993717
 30
0.0
  0
SPLINE
  5
201
100
AcDbEntity
  8
0
 62
7
100
AcDbSpline
 70
8
 71
3
 72
8
 73
4
 74
0
 40
0
 40
0
 40
0
 40
0
 40
1
 40
1
 40
1
 40
1
 10
16.537781
 20
8.993717
 30
0.0
 10
16.626946
 20
8.849254
 30
0.0
 10
17.411171
 20
8.731250
 30
0.0
 10
18.280062
 20
8.731250
 30
0.0
  0
SPLINE
  5
202
100
AcDbEntity
  8
0
 62
7
100
AcDbSpline
 70
8
 71
3
 72
8
 73
4
 74
0
 40
0
 40
0
 40
0
 40
0
 40
1
 40
1
 40
1
 40
1
 10
18.280062
 20
8.731250
 30
0.0
 10
19.506671
 20
8.731250
 30
0.0
 10
19.897990
 20
8.829146
 30
0.0
 10
20.028429
 20
9.169400
 30
0.0
  0
SPLINE
  5
203
100
AcDbEntity
  8
0
 62
7
100
AcDbSpline
 70
8
 71
3
 72
8
 73
4
 74
0
 40
0
 40
0
 40
0
 40
0
 40
1
 40
1
 40
1
 40
1
 10
20.028429
 20
9.169400
 30
0.0
 10
20.136115
 20
9.449594
 30
0.0
 10
19.979481
 20
9.783233
 30
0.0
 10
19.593983
 20
10.095442
 30
0.0
  0
SPLINE
  5
204
100
AcDbEntity
  8
0
 62
7
100
AcDbSpline
 70
8
 71
3
 72
8
 73
4
 74
0
 40
0
 40
0
 40
0
 40
0
 40
1
 40
1
 40
1
 40
1
 10
19.593983
 20
10.095442
 30
0.0
 10
19.262460
 20
10.363729
 30
0.0
 10
18.701544
 20
10.583333
 30
0.0
 10
18.347267
 20
10.583333
 30
0.0
  0
SPLINE
  5
205
100
AcDbEntity
  8
0
 62
7
100
AcDbSpline
 70
8
 71
3
 72
8
 73
4
 74
0
 40
0
 40
0
 40
0
 40
0
 40
1
 40
1
 40
1
 40
1
 10
18.347267
 20
10.583333
 30
0.0
 10
17.992990
 20
10.583333
 30
0.0
 10
17.404292
 20
10.284619
 30
0.0
 10
17.039431
 20
9.919758
 30
0.0
  0
SPLINE
  5
206
100
AcDbEntity
  8
0
 62
7
100
AcDbSpline
 70
8
 71
3
 72
8
 73
4
 74
0
 40
0
 40
0
 40
0
 40
0
 40
1
 40
1
 40
1
 40
1
 10
6.104731
 20
9.356990
 30
0.0
 10
5.803106
 20
8.973608
 30
0.0
 10
5.556250
 20
8.312944
 30
0.0
 10
5.556250
 20
7.888552
 30
0.0
  0
SPLINE
  5
207
100
AcDbEntity
  8
0
 62
7
100
AcDbSpline
 70
8
 71
3
 72
8
 73
4
 74
0
 40
0
 40
0
 40
0
 40
0
 40
1
 40
1
 40
1
 40
1
 10
5.556250
 20
7.888552
 30
0.0
 10
5.556250
 20
7.464425
 30
0.0
 10
5.738019
 20
6.766190
 30
0.0
 10
5.960004
 20
6.336771
 30
0.0
  0
SPLINE
  5
208
100
AcDbEntity
  8
0
 62
7
100
AcDbSpline
 70
8
 71
3
 72
8
 73
4
 74
0
 40
0
 40
0
 40
0
 40
0
 40
1
 40
1
 40
1
 40
1
 10
5.960004
 20
6.336771
 30
0.0
 10
6.268508
 20
5.739871
 30
0.0
 10
6.547379
 20
5.556250
 30
0.0
 10
7.144544
 20
5.556250
 30
0.0
  0
SPLINE
  5
209
100
AcDbEntity
  8
0
 62
7
100
AcDbSpline
 70
8
 71
3
 72
8
 73
4
 74
0
 40
0
 40
0
 40
0
 40
0
 40
1
 40
1
 40
1
 40
1
 10
7.144544
 20
5.556250
 30
0.0
 10
7.664715
 20
5.556250
 30
0.0
 10
8.052594
 20
5.754952
 30
0.0
 10
8.306594
 20
6.151562
 30
0.0
  0
SPLINE
  5
20a
100
AcDbEntity
  8
0
 62
7
100
AcDbSpline
 70
8
 71
3
 72
8
 73
4
 74
0
 40
0
 40
0
 40
0
 40
0
 40
1
 40
1
 40
1
 40
1
 10
8.306594
 20
6.151562
 30
0.0
 10
8.516408
 20
6.478852
 30
0.0
 10
8.711406
 20
6.985000
 30
0.0
 10
8.740246
 20
7.276042
 30
0.0
  0
SPLINE
  5
20b
100
AcDbEntity
  8
0
 62
7
100
AcDbSpline
 70
8
 71
3
 72
8
 73
4
 74
0
 40
0
 40
0
 40
0
 40
0
 40
1
 40
1
 40
1
 40
1
 10
8.740246
 20
7.276042
 30
0.0
 10
8.768821
 20
7.567083
 30
0.0
 10
8.778346
 20
8.073231
 30
0.0
 10
8.761677
 20
8.400521
 30
0.0
  0
SPLINE
  5
20c
100
AcDbEntity
  8
0
 62
7
100
AcDbSpline
 70
8
 71
3
 72
8
 73
4
 74
0
 40
0
 40
0
 40
0
 40
0
 40
1
 40
1
 40
1
 40
1
 10
8.761677
 20
8.400521
 30
0.0
 10
8.745008
 20
8.727810
 30
0.0
 10
8.493125
 20
9.233958
 30
0.0
 10
8.202083
 20
9.525000
 30
0.0
  0
SPLINE
  5
20d
100
AcDbEntity
  8
0
 62
7
100
AcDbSpline
 70
8
 71
3
 72
8
 73
4
 74
0
 40
0
 40
0
 40
0
 40
0
 40
1
 40
1
 40
1
 40
1
 10
8.202083
 20
9.525000
 30
0.0
 10
7.911042
 20
9.816042
 30
0.0
 10
7.443523
 20
10.054167
 30
0.0
 10
7.163065
 20
10.054167
 30
0.0
  0
SPLINE
  5
20e
100
AcDbEntity
  8
0
 62
7
100
AcDbSpline
 70
8
 71
3
 72
8
 73
4
 74
0
 40
0
 40
0
 40
0
 40
0
 40
1
 40
1
 40
1
 40
1
 10
7.163065
 20
10.054167
 30
0.0
 10
6.882342
 20
10.054167
 30
0.0
 10
6.406092
 20
9.740371
 30
0.0
 10
6.104731
 20
9.356990
 30
0.0
  0
SPLINE
  5
20f
100
AcDbEntity
  8
0
 62
7
100
AcDbSpline
 70
8
 71
3
 72
8
 73
4
 74
0
 40
0
 40
0
 40
0
 40
0
 40
1
 40
1
 40
1
 40
1
 10
27.399456
 20
9.465998
 30
0.0
 10
27.172973
 20
9.142677
 30
0.0
 10
26.987500
 20
8.395229
 30
0.0
 10
26.987500
 20
7.805208
 30
0.0
  0
SPLINE
  5
210
100
AcDbEntity
  8
0
 62
7
100
AcDbSpline
 70
8
 71
3
 72
8
 73
4
 74
0
 40
0
 40
0
 40
0
 40
0
 40
1
 40
1
 40
1
 40
1
 10
26.987500
 20
7.805208
 30
0.0
 10
26.987500
 20
7.215187
 30
0.0
 10
27.172973
 20
6.467740
 30
0.0
 10
27.399456
 20
6.144419
 30
0.0
  0
SPLINE
  5
211
100
AcDbEntity
  8
0
 62
7
100
AcDbSpline
 70
8
 71
3
 72
8
 73
4
 74
0
 40
0
 40
0
 40
0
 40
0
 40
1
 40
1
 40
1
 40
1
 10
27.399456
 20
6.144419
 30
0.0
 10
27.625940
 20
5.820833
 30
0.0
 10
28.072292
 20
5.558102
 30
0.0
 10
28.391644
 20
5.560219
 30
0.0
  0
SPLINE
  5
212
100
AcDbEntity
  8
0
 62
7
100
AcDbSpline
 70
8
 71
3
 72
8
 73
4
 74
0
 40
0
 40
0
 40
0
 40
0
 40
1
 40
1
 40
1
 40
1
 10
28.391644
 20
5.560219
 30
0.0
 10
28.710731
 20
5.562600
 30
0.0
 10
29.102844
 20
5.651765
 30
0.0
 10
29.262917
 20
5.758656
 30
0.0
  0
SPLINE
  5
213
100
AcDbEntity
  8
0
 62
7
100
AcDbSpline
 70
8
 71
3
 72
8
 73
4
 74
0
 40
0
 40
0
 40
0
 40
0
 40
1
 40
1
 40
1
 40
1
 10
29.262917
 20
5.758656
 30
0.0
 10
29.422990
 20
5.865548
 30
0.0
 10
29.691013
 20
6.213210
 30
0.0
 10
29.858229
 20
6.530975
 30
0.0
  0
SPLINE
  5
214
100
AcDbEntity
  8
0
 62
7
100
AcDbSpline
 70
8
 71
3
 72
8
 73
4
 74
0
 40
0
 40
0
 40
0
 40
0
 40
1
 40
1
 40
1
 40
1
 10
29.858229
 20
6.530975
 30
0.0
 10
30.025710
 20
6.849004
 30
0.0
 10
30.162500
 20
7.457810
 30
0.0
 10
30.162500
 20
7.884319
 30
0.0
  0
SPLINE
  5
215
100
AcDbEntity
  8
0
 62
7
100
AcDbSpline
 70
8
 71
3
 72
8
 73
4
 74
0
 40
0
 40
0
 40
0
 40
0
 40
1
 40
1
 40
1
 40
1
 10
30.162500
 20
7.884319
 30
0.0
 10
30.162500
 20
8.310827
 30
0.0
 10
29.915644
 20
8.973608
 30
0.0
 10
29.614019
 20
9.356990
 30
0.0
  0
SPLINE
  5
216
100
AcDbEntity
  8
0
 62
7
100
AcDbSpline
 70
8
 71
3
 72
8
 73
4
 74
0
 40
0
 40
0
 40
0
 40
0
 40
1
 40
1
 40
1
 40
1
 10
29.614019
 20
9.356990
 30
0.0
 10
29.297313
 20
9.759950
 30
0.0
 10
28.800954
 20
10.054167
 30
0.0
 10
28.438475
 20
10.054167
 30
0.0
  0
SPLINE
  5
217
100
AcDbEntity
  8
0
 62
7
100
AcDbSpline
 70
8
 71
3
 72
8
 73
4
 74
0
 40
0
 40
0
 40
0
 40
0
 40
1
 40
1
 40
1
 40
1
 10
28.438475
 20
10.054167
 30
0.0
 10
28.090283
 20
10.054167
 30
0.0
 10
27.628056
 20
9.792494
 30
0.0
 10
27.399456
 20
9.465998
 30
0.0
  0
SPLINE
  5
218
100
AcDbEntity
  8
0
 62
7
100
AcDbSpline
 70
8
 71
3
 72
8
 73
4
 74
0
 40
0
 40
0
 40
0
 40
0
 40
1
 40
1
 40
1
 40
1
 10
63.810621
 20
9.441921
 30
0.0
 10
63.419831
 20
9.025731
 30
0.0
 10
63.235417
 20
8.493390
 30
0.0
 10
63.235417
 20
7.780867
 30
0.0
  0
SPLINE
  5
219
100
AcDbEntity
  8
0
 62
7
100
AcDbSpline
 70
8
 71
3
 72
8
 73
4
 74
0
 40
0
 40
0
 40
0
 40
0
 40
1
 40
1
 40
1
 40
1
 10
63.235417
 20
7.780867
 30
0.0
 10
63.235417
 20
7.204075
 30
0.0
 10
63.420890
 20
6.467740
 30
0.0
 10
63.647373
 20
6.144419
 30
0.0
  0
SPLINE
  5
21a
100
AcDbEntity
  8
0
 62
7
100
AcDbSpline
 70
8
 71
3
 72
8
 73
4
 74
0
 40
0
 40
0
 40
0
 40
0
 40
1
 40
1
 40
1
 40
1
 10
63.647373
 20
6.144419
 30
0.0
 10
63.881794
 20
5.809456
 30
0.0
 10
64.337406
 20
5.556250
 30
0.0
 10
64.705706
 20
5.556250
 30
0.0
  0
SPLINE
  5
21b
100
AcDbEntity
  8
0
 62
7
100
AcDbSpline
 70
8
 71
3
 72
8
 73
4
 74
0
 40
0
 40
0
 40
0
 40
0
 40
1
 40
1
 40
1
 40
1
 10
64.705706
 20
5.556250
 30
0.0
 10
65.061306
 20
5.556250
 30
0.0
 10
65.590208
 20
5.794375
 30
0.0
 10
65.881250
 20
6.085417
 30
0.0
  0
SPLINE
  5
21c
100
AcDbEntity
  8
0
 62
7
100
AcDbSpline
 70
8
 71
3
 72
8
 73
4
 74
0
 40
0
 40
0
 40
0
 40
0
 40
1
 40
1
 40
1
 40
1
 10
65.881250
 20
6.085417
 30
0.0
 10
66.212508
 20
6.416675
 30
0.0
 10
66.410417
 20
6.967273
 30
0.0
 10
66.410417
 20
7.558087
 30
0.0
  0
SPLINE
  5
21d
100
AcDbEntity
  8
0
 62
7
100
AcDbSpline
 70
8
 71
3
 72
8
 73
4
 74
0
 40
0
 40
0
 40
0
 40
0
 40
1
 40
1
 40
1
 40
1
 10
66.410417
 20
7.558087
 30
0.0
 10
66.410417
 20
8.076935
 30
0.0
 10
66.273627
 20
8.761412
 30
0.0
 10
66.106146
 20
9.079442
 30
0.0
  0
SPLINE
  5
21e
100
AcDbEntity
  8
0
 62
7
100
AcDbSpline
 70
8
 71
3
 72
8
 73
4
 74
0
 40
0
 40
0
 40
0
 40
0
 40
1
 40
1
 40
1
 40
1
 10
66.106146
 20
9.079442
 30
0.0
 10
65.938929
 20
9.397206
 30
0.0
 10
65.670906
 20
9.744869
 30
0.0
 10
65.510833
 20
9.851760
 30
0.0
  0
SPLINE
  5
21f
100
AcDbEntity
  8
0
 62
7
100
AcDbSpline
 70
8
 71
3
 72
8
 73
4
 74
0
 40
0
 40
0
 40
0
 40
0
 40
1
 40
1
 40
1
 40
1
 10
65.510833
 20
9.851760
 30
0.0
 10
65.350760
 20
9.958652
 30
0.0
 10
65.032202
 20
10.047817
 30
0.0
 10
64.802808
 20
10.050198
 30
0.0
  0
SPLINE
  5
220
100
AcDbEntity
  8
0
 62
7
100
AcDbSpline
 70
8
 71
3
 72
8
 73
4
 74
0
 40
0
 40
0
 40
0
 40
0
 40
1
 40
1
 40
1
 40
1
 10
64.802808
 20
10.050198
 30
0.0
 10
64.573679
 20
10.052315
 30
0.0
 10
64.127063
 20
9.778471
 30
0.0
 10
63.810621
 20
9.441921
 30
0.0
  0
SPLINE
  5
221
100
AcDbEntity
  8
0
 62
7
100
AcDbSpline
 70
8
 71
3
 72
8
 73
4
 74
0
 40
0
 40
0
 40
0
 40
0
 40
1
 40
1
 40
1
 40
1
 10
95.004731
 20
9.356990
 30
0.0
 10
94.703106
 20
8.973608
 30
0.0
 10
94.456250
 20
8.326437
 30
0.0
 10
94.456250
 20
7.918979
 30
0.0
  0
SPLINE
  5
222
100
AcDbEntity
  8
0
 62
7
100
AcDbSpline
 70
8
 71
3
 72
8
 73
4
 74
0
 40
0
 40
0
 40
0
 40
0
 40
1
 40
1
 40
1
 40
1
 10
94.456250
 20
7.918979
 30
0.0
 10
94.456250
 20
7.511521
 30
0.0
 10
94.568433
 20
6.882871
 30
0.0
 10
94.705752
 20
6.522244
 30
0.0
  0
SPLINE
  5
223
100
AcDbEntity
  8
0
 62
7
100
AcDbSpline
 70
8
 71
3
 72
8
 73
4
 74
0
 40
0
 40
0
 40
0
 40
0
 40
1
 40
1
 40
1
 40
1
 10
94.705752
 20
6.522244
 30
0.0
 10
94.842806
 20
6.161352
 30
0.0
 10
95.199994
 20
5.788290
 30
0.0
 10
95.499502
 20
5.693304
 30
0.0
  0
SPLINE
  5
224
100
AcDbEntity
  8
0
 62
7
100
AcDbSpline
 70
8
 71
3
 72
8
 73
4
 74
0
 40
0
 40
0
 40
0
 40
0
 40
1
 40
1
 40
1
 40
1
 10
95.499502
 20
5.693304
 30
0.0
 10
95.798746
 20
5.598319
 30
0.0
 10
96.269175
 20
5.592233
 30
0.0
 10
96.544342
 20
5.679546
 30
0.0
  0
SPLINE
  5
225
100
AcDbEntity
  8
0
 62
7
100
AcDbSpline
 70
8
 71
3
 72
8
 73
4
 74
0
 40
0
 40
0
 40
0
 40
0
 40
1
 40
1
 40
1
 40
1
 10
96.544342
 20
5.679546
 30
0.0
 10
96.819773
 20
5.766858
 30
0.0
 10
97.190719
 20
6.189663
 30
0.0
 10
97.368519
 20
6.619081
 30
0.0
  0
SPLINE
  5
226
100
AcDbEntity
  8
0
 62
7
100
AcDbSpline
 70
8
 71
3
 72
8
 73
4
 74
0
 40
0
 40
0
 40
0
 40
0
 40
1
 40
1
 40
1
 40
1
 10
97.368519
 20
6.619081
 30
0.0
 10
97.555844
 20
7.070990
 30
0.0
 10
97.618815
 20
7.788010
 30
0.0
 10
97.518538
 20
8.322469
 30
0.0
  0
SPLINE
  5
227
100
AcDbEntity
  8
0
 62
7
100
AcDbSpline
 70
8
 71
3
 72
8
 73
4
 74
0
 40
0
 40
0
 40
0
 40
0
 40
1
 40
1
 40
1
 40
1
 10
97.518538
 20
8.322469
 30
0.0
 10
97.423552
 20
8.829940
 30
0.0
 10
97.085679
 20
9.427104
 30
0.0
 10
96.768179
 20
9.649619
 30
0.0
  0
SPLINE
  5
228
100
AcDbEntity
  8
0
 62
7
100
AcDbSpline
 70
8
 71
3
 72
8
 73
4
 74
0
 40
0
 40
0
 40
0
 40
0
 40
1
 40
1
 40
1
 40
1
 10
96.768179
 20
9.649619
 30
0.0
 10
96.450415
 20
9.872133
 30
0.0
 10
96.047190
 20
10.054167
 30
0.0
 10
95.871771
 20
10.054167
 30
0.0
  0
SPLINE
  5
229
100
AcDbEntity
  8
0
 62
7
100
AcDbSpline
 70
8
 71
3
 72
8
 73
4
 74
0
 40
0
 40
0
 40
0
 40
0
 40
1
 40
1
 40
1
 40
1
 10
95.871771
 20
10.054167
 30
0.0
 10
95.696352
 20
10.054167
 30
0.0
 10
95.306092
 20
9.740371
 30
0.0
 10
95.004731
 20
9.356990
 30
0.0
  0
LWPOLYLINE
  5
22a
100
AcDbEntity
  8
0
 62
7
100
AcDbPolyline
 90
3
 70
0
 10
99.526990
 20
12.237508
 30
0.0
 10
98.997294
 20
11.510169
 30
0.0
 10
98.119935
 20
12.158927
 30
0.0
  0
ENDSEC
  0
SECTION
  2
OBJECTS
  0
DICTIONARY
  5
C
330
0
100
AcDbDictionary
  3
ACAD_GROUP
350
D
  3
ACAD_MLINESTYLE
350
17
  0
DICTIONARY
  5
D
330
C
100
AcDbDictionary
  0
DICTIONARY
  5
1A
330
C
100
AcDbDictionary
  0
DICTIONARY
  5
17
330
C
100
AcDbDictionary
  3
STANDARD
350
18
  0
DICTIONARY
  5
19
330
C
100
AcDbDictionary
  0
ENDSEC
  0
EOF
